<?xml version="1.0" standalone="no"?>
<!DOCTYPE svg PUBLIC "-//W3C//DTD SVG 20010904//EN"
 "http://www.w3.org/TR/2001/REC-SVG-20010904/DTD/svg10.dtd">
<svg version="1.0" xmlns="http://www.w3.org/2000/svg"
 width="16.000000pt" height="16.000000pt" viewBox="0 0 980.000000 970.000000"
 preserveAspectRatio="xMidYMid meet">

<g transform="translate(0.000000,970.000000) scale(0.100000,-0.100000)"
fill="#ff6c22" stroke="none">
<path d="M4525 9690 c-106 -8 -435 -57 -620 -91 -646 -121 -1368 -445 -1945
-874 -438 -326 -841 -750 -1145 -1205 -515 -773 -787 -1632 -812 -2565 -34
-1309 473 -2567 1414 -3511 694 -695 1539 -1153 2488 -1348 686 -142 1538
-117 2266 64 369 92 814 274 1174 479 491 280 971 683 1333 1119 886 1066
1273 2451 1066 3812 -137 898 -512 1721 -1097 2409 -127 150 -419 439 -567
561 -813 674 -1788 1068 -2820 1139 -205 14 -617 20 -735 11z m922 -659 c486
-63 869 -181 1328 -406 892 -439 1527 -1067 1952 -1930 373 -757 509 -1607
392 -2444 -66 -469 -170 -790 -419 -1287 -230 -458 -425 -730 -775 -1080 -238
-238 -414 -383 -683 -558 -432 -283 -1016 -529 -1475 -621 -186 -37 -347 -45
-881 -45 -526 0 -653 7 -841 47 -516 108 -1249 426 -1626 704 -323 239 -803
724 -1021 1030 -156 220 -345 566 -451 829 -208 512 -289 964 -291 1620 -1
410 21 626 95 930 182 743 584 1457 1129 2000 673 671 1534 1091 2485 1210
227 28 225 28 590 25 268 -2 361 -7 492 -24z"/>
<path d="M5395 8096 c-258 -51 -461 -231 -520 -461 -19 -76 -19 -250 0 -333
40 -169 167 -318 347 -407 331 -162 815 -13 974 302 82 161 65 457 -34 613
-76 119 -237 226 -408 270 -102 27 -266 34 -359 16z"/>
<path d="M5500 6073 c-564 -58 -1301 -174 -1517 -238 -56 -17 -88 -47 -98 -97
-6 -23 -2 -35 13 -51 17 -17 40 -22 132 -28 135 -10 196 -34 269 -107 69 -69
78 -108 58 -232 -27 -162 -102 -418 -397 -1350 -295 -932 -430 -1417 -430
-1537 1 -251 170 -453 440 -524 111 -29 312 -32 443 -6 251 50 504 176 710
351 200 172 616 692 621 777 1 42 -36 70 -102 77 -57 5 -57 5 -189 -158 -98
-121 -351 -373 -427 -425 -48 -33 -67 -40 -102 -39 -75 2 -124 66 -124 163 0
70 62 280 425 1441 220 704 454 1461 540 1745 62 205 65 220 49 232 -17 12
-217 16 -314 6z"/>
</g>
</svg>
