<?xml version="1.0" standalone="no"?>
<!DOCTYPE svg PUBLIC "-//W3C//DTD SVG 20010904//EN"
 "http://www.w3.org/TR/2001/REC-SVG-20010904/DTD/svg10.dtd">
<svg version="1.0" xmlns="http://www.w3.org/2000/svg"
 width="20.000000pt" height="20.000000pt" viewBox="0 0 1088.000000 1000.000000"
 preserveAspectRatio="xMidYMid meet">

<g transform="translate(0.000000,970.000000) scale(0.100000,-0.100000)"
fill="#000000" stroke="none">
<path d="M10567 9503 c-21 -5 -267 -131 -284 -145 -7 -6 -47 -28 -90 -50 -43
-22 -85 -45 -93 -52 -8 -7 -41 -25 -72 -40 -32 -15 -60 -32 -63 -37 -4 -5 -25
-18 -48 -28 -23 -11 -59 -31 -80 -45 -21 -14 -40 -26 -43 -26 -4 0 -26 -13
-51 -30 -24 -16 -48 -30 -52 -30 -5 0 -14 -7 -21 -15 -7 -9 -33 -25 -56 -35
-24 -11 -46 -24 -49 -30 -3 -6 -25 -19 -49 -30 -23 -10 -49 -26 -56 -35 -7 -8
-18 -15 -25 -15 -6 0 -20 -9 -30 -20 -10 -11 -23 -20 -30 -20 -7 0 -20 -9 -30
-20 -10 -11 -24 -20 -30 -20 -7 0 -18 -7 -25 -15 -7 -9 -32 -25 -55 -35 -23
-10 -48 -26 -55 -35 -7 -8 -18 -15 -25 -15 -6 0 -20 -9 -30 -20 -10 -11 -23
-20 -30 -20 -7 0 -20 -9 -30 -20 -10 -11 -22 -20 -27 -20 -10 0 -41 -22 -102
-72 -19 -16 -38 -28 -43 -28 -6 0 -18 -9 -28 -20 -10 -11 -23 -20 -30 -20 -7
0 -20 -9 -30 -20 -10 -11 -23 -20 -30 -20 -6 0 -24 -13 -40 -30 -16 -16 -34
-30 -40 -30 -7 0 -20 -9 -30 -20 -10 -11 -23 -20 -30 -20 -6 0 -24 -13 -40
-30 -16 -16 -34 -30 -40 -30 -7 0 -20 -9 -30 -20 -10 -11 -23 -20 -30 -20 -6
0 -24 -13 -40 -30 -16 -16 -34 -30 -40 -30 -6 0 -24 -13 -40 -30 -16 -16 -34
-30 -40 -30 -6 0 -24 -13 -40 -30 -16 -16 -34 -30 -40 -30 -6 0 -24 -13 -40
-30 -16 -16 -34 -30 -40 -30 -6 0 -24 -13 -40 -30 -16 -16 -34 -30 -40 -30 -6
0 -29 -18 -50 -40 -21 -22 -44 -40 -50 -40 -6 0 -24 -13 -40 -30 -16 -16 -34
-30 -40 -30 -6 0 -29 -18 -50 -40 -21 -22 -44 -40 -50 -40 -6 0 -33 -22 -60
-50 -27 -27 -54 -50 -60 -50 -6 0 -29 -18 -50 -40 -21 -22 -44 -40 -50 -40 -6
0 -29 -18 -50 -40 -21 -22 -44 -40 -50 -40 -6 0 -33 -22 -60 -50 -27 -27 -54
-50 -60 -50 -6 0 -42 -31 -80 -70 -38 -38 -74 -70 -80 -70 -6 0 -33 -22 -60
-50 -27 -27 -54 -50 -60 -50 -6 0 -42 -31 -80 -70 -38 -38 -74 -70 -80 -70 -6
0 -46 -36 -90 -80 -44 -44 -84 -80 -90 -80 -6 0 -64 -54 -130 -120 -66 -66
-124 -120 -130 -120 -6 0 -87 -77 -180 -170 -93 -93 -174 -170 -180 -170 -20
0 -1135 -1136 -1135 -1156 0 -5 -40 -50 -90 -99 -49 -49 -90 -94 -90 -100 0
-6 -41 -51 -90 -100 -49 -49 -90 -94 -90 -100 0 -6 -31 -42 -70 -80 -38 -38
-70 -74 -70 -80 0 -6 -27 -37 -60 -70 -33 -33 -60 -64 -60 -70 0 -6 -27 -37
-60 -70 -33 -33 -60 -64 -60 -69 0 -6 -28 -38 -62 -73 -51 -51 -65 -60 -80
-52 -10 5 -18 15 -18 22 0 8 -14 26 -30 42 -17 16 -30 34 -30 40 0 7 -9 20
-20 30 -11 10 -20 23 -20 30 0 6 -14 24 -30 40 -17 16 -30 34 -30 40 0 6 -14
24 -30 40 -17 16 -30 34 -30 40 0 7 -9 20 -20 30 -11 10 -20 23 -20 30 0 6
-13 24 -30 40 -16 16 -30 34 -30 40 0 7 -9 20 -20 30 -11 10 -20 23 -20 30 0
6 -14 24 -30 40 -17 16 -30 34 -30 40 0 6 -13 24 -30 40 -17 16 -30 34 -30 40
0 7 -9 20 -20 30 -11 10 -20 23 -20 30 0 6 -14 24 -30 40 -17 16 -30 34 -30
40 0 7 -9 20 -20 30 -11 10 -20 23 -20 30 0 6 -13 24 -30 40 -16 16 -30 34
-30 40 0 7 -9 20 -20 30 -11 10 -20 23 -20 30 0 6 -14 24 -30 40 -17 16 -30
34 -30 40 0 6 -14 24 -30 40 -17 16 -30 34 -30 40 0 7 -9 20 -20 30 -11 10
-20 23 -20 29 0 16 -52 66 -69 66 -21 0 -1051 -1030 -1051 -1051 0 -8 18 -33
40 -54 22 -21 40 -44 40 -50 0 -6 23 -33 50 -60 28 -27 50 -54 50 -60 0 -6 27
-37 60 -70 33 -33 60 -64 60 -70 0 -6 13 -24 30 -40 17 -16 30 -34 30 -40 0
-6 18 -29 40 -50 22 -21 40 -44 40 -50 0 -6 13 -24 30 -40 17 -16 30 -34 30
-40 0 -6 13 -24 30 -40 16 -16 30 -34 30 -40 0 -6 13 -24 30 -40 16 -16 30
-34 30 -40 0 -6 13 -24 30 -40 16 -16 30 -34 30 -40 0 -6 14 -24 30 -40 17
-16 30 -34 30 -40 0 -6 14 -24 30 -40 17 -16 30 -34 30 -40 0 -6 13 -24 30
-40 16 -16 30 -34 30 -40 0 -7 9 -20 20 -30 11 -10 20 -23 20 -30 0 -6 13 -24
30 -40 16 -16 30 -34 30 -40 0 -7 9 -20 20 -30 11 -10 20 -23 20 -30 0 -6 13
-24 30 -40 16 -16 30 -34 30 -40 0 -7 9 -20 20 -30 11 -10 20 -23 20 -30 0 -6
14 -24 30 -40 17 -16 30 -34 30 -40 0 -7 9 -20 20 -30 11 -10 20 -23 20 -30 0
-7 9 -20 20 -30 11 -10 20 -23 20 -30 0 -6 13 -24 30 -40 17 -16 30 -34 30
-40 0 -7 9 -20 20 -30 11 -10 20 -23 20 -30 0 -7 9 -20 20 -30 11 -10 20 -23
20 -30 0 -7 9 -20 20 -30 11 -10 20 -23 20 -30 0 -7 9 -20 20 -30 11 -10 20
-23 20 -30 0 -6 13 -24 30 -40 16 -16 30 -34 30 -40 0 -7 9 -20 20 -30 11 -10
20 -23 20 -30 0 -7 9 -20 20 -30 11 -10 20 -23 20 -30 0 -7 9 -20 20 -30 11
-10 20 -23 20 -30 0 -7 9 -20 20 -30 11 -10 20 -23 20 -30 0 -7 9 -20 20 -30
11 -10 20 -23 20 -30 0 -7 9 -20 20 -30 11 -10 20 -23 20 -30 0 -7 9 -20 20
-30 11 -10 20 -23 20 -29 1 -21 50 -68 65 -62 8 3 15 11 15 17 0 7 7 20 14 28
8 9 37 59 63 111 27 52 60 113 74 135 14 22 38 66 53 97 15 32 31 60 36 63 5
3 17 23 27 43 10 20 28 53 41 72 13 19 32 54 43 77 10 23 23 45 29 48 6 3 19
26 30 50 11 24 24 47 30 50 6 3 19 25 30 49 10 23 26 49 35 56 8 7 15 18 15
25 0 7 7 18 15 25 9 7 25 32 35 55 10 23 26 48 35 55 8 7 15 18 15 25 0 7 7
18 15 25 9 7 25 32 35 55 10 23 26 48 35 55 8 7 15 18 15 25 0 6 9 20 20 30
11 10 20 23 20 30 0 7 9 20 20 30 11 10 20 23 20 30 0 7 9 20 20 30 11 10 20
23 20 30 0 7 9 20 20 30 11 10 20 23 20 30 0 7 9 20 20 30 11 10 20 23 20 30
0 7 9 20 20 30 11 10 20 23 20 30 0 7 9 20 20 30 11 10 20 23 20 30 0 7 9 20
20 30 11 10 20 23 20 30 0 7 9 20 20 30 11 10 20 23 20 30 0 7 9 20 20 30 11
10 20 23 20 30 0 6 14 24 30 40 17 16 30 34 30 40 0 7 9 20 20 30 11 10 20 23
20 30 0 6 14 24 30 40 17 16 30 34 30 40 0 7 9 20 20 30 11 10 20 23 20 30 0
6 14 24 30 40 17 16 30 34 30 40 0 7 9 20 20 30 11 10 20 23 20 30 0 6 14 24
30 40 17 16 30 34 30 40 0 6 14 24 30 40 17 16 30 34 30 40 0 6 14 24 30 40
17 16 30 34 30 40 0 6 14 24 30 40 17 16 30 34 30 40 0 6 14 24 30 40 17 16
30 34 30 40 0 6 14 24 30 40 17 16 30 34 30 40 0 6 18 29 40 50 22 21 40 44
40 50 0 6 18 29 40 50 22 21 40 44 40 50 0 6 18 29 40 50 22 21 40 44 40 50 0
6 14 24 30 40 17 16 30 34 30 40 0 6 23 33 50 60 28 27 50 54 50 60 0 6 18 29
40 50 22 21 40 44 40 50 0 6 23 33 50 60 28 27 50 54 50 60 0 6 23 33 50 60
28 27 50 54 50 60 0 6 18 29 40 50 22 21 40 44 40 50 0 6 32 42 70 80 39 38
70 74 70 80 0 6 32 42 70 80 39 38 70 74 70 80 0 6 32 42 70 80 39 38 70 74
70 80 0 6 36 46 80 90 44 44 80 84 80 90 0 6 45 55 100 110 55 55 100 104 100
110 0 6 63 73 140 150 77 77 140 144 140 150 0 13 1232 1245 1245 1245 6 0 78
68 160 150 82 83 154 150 160 150 6 0 60 50 120 110 60 61 114 110 120 110 6
0 55 45 110 100 55 55 104 100 110 100 6 0 42 32 80 70 38 39 74 70 80 70 6 0
42 32 80 70 38 39 74 70 80 70 6 0 37 27 70 60 33 33 64 60 70 60 6 0 37 27
70 60 33 33 64 60 70 60 6 0 37 27 70 60 33 33 64 60 70 60 6 0 33 23 60 50
27 28 55 50 61 50 7 0 25 13 41 28 15 16 36 31 45 35 9 3 22 15 28 26 6 12 9
20 8 20 -2 -1 -11 -3 -21 -6z"/>
<path d="M3785 8099 c-162 -10 -390 -46 -565 -89 -19 -5 -69 -16 -109 -25 -41
-9 -107 -27 -145 -40 -39 -12 -84 -26 -101 -30 -16 -3 -43 -13 -60 -20 -16 -7
-59 -23 -95 -35 -36 -12 -69 -26 -75 -31 -5 -5 -16 -9 -25 -9 -8 0 -42 -14
-75 -30 -33 -17 -63 -30 -68 -30 -14 0 -230 -107 -268 -133 -19 -12 -60 -35
-91 -50 -32 -16 -60 -33 -63 -38 -4 -5 -25 -18 -49 -29 -23 -10 -49 -26 -56
-35 -7 -8 -18 -15 -25 -15 -6 0 -20 -9 -30 -20 -10 -11 -23 -20 -30 -20 -6 0
-24 -13 -40 -30 -16 -16 -34 -30 -40 -30 -7 0 -20 -9 -30 -20 -10 -11 -23 -20
-30 -20 -6 0 -29 -18 -50 -40 -21 -22 -44 -40 -50 -40 -6 0 -29 -18 -50 -40
-21 -22 -44 -40 -50 -40 -12 0 -461 -453 -517 -522 -21 -26 -38 -50 -38 -55 0
-5 -18 -27 -40 -48 -22 -21 -40 -44 -40 -50 0 -6 -13 -24 -30 -40 -16 -16 -30
-34 -30 -40 0 -7 -9 -20 -20 -30 -11 -10 -20 -23 -20 -30 0 -7 -9 -20 -20 -30
-11 -10 -20 -24 -20 -30 0 -7 -7 -18 -15 -25 -9 -7 -25 -33 -35 -56 -11 -24
-24 -46 -30 -49 -5 -3 -17 -23 -27 -43 -10 -20 -27 -52 -40 -70 -26 -39 -173
-335 -173 -348 0 -5 -13 -36 -30 -69 -16 -33 -30 -68 -30 -77 0 -9 -4 -19 -8
-22 -12 -7 -105 -299 -141 -441 -5 -22 -17 -65 -25 -95 -36 -130 -77 -421 -97
-705 -25 -342 18 -806 106 -1155 139 -546 362 -1019 688 -1457 367 -492 871
-914 1423 -1191 249 -125 589 -251 828 -307 33 -8 90 -21 126 -29 343 -81 902
-116 1190 -76 36 5 110 14 165 20 158 19 375 57 445 80 14 4 51 14 83 21 32 7
60 16 63 21 3 4 14 8 25 8 25 0 320 98 334 111 5 5 16 9 25 9 8 0 42 14 75 30
33 17 64 30 69 30 13 0 309 147 348 173 18 13 49 30 69 40 20 9 42 23 49 32 7
8 18 15 25 15 7 0 18 7 25 15 7 9 32 24 54 35 23 10 52 30 65 44 14 14 30 26
36 26 7 0 20 9 30 20 10 11 23 20 30 20 6 0 24 14 40 30 16 17 34 30 40 30 6
0 29 18 50 40 21 22 44 40 50 40 6 0 33 22 60 50 27 27 54 50 60 50 13 0 355
342 355 355 0 6 27 37 60 70 33 33 60 64 60 70 0 6 18 29 40 50 22 21 40 44
40 50 0 6 14 24 30 40 17 16 30 34 30 40 0 7 9 20 20 30 11 10 20 23 20 30 0
7 9 20 20 30 11 10 20 23 20 30 0 7 9 20 20 30 11 10 20 23 20 30 0 7 9 20 20
30 11 10 20 23 20 28 0 6 6 18 14 26 8 9 27 41 43 71 16 30 40 73 54 95 30 47
129 249 129 262 0 4 13 35 30 68 16 33 30 65 30 71 0 5 9 29 20 52 11 22 20
48 20 56 0 8 4 17 8 20 10 6 65 178 126 396 91 323 146 900 117 1225 -6 72
-16 180 -21 240 -6 61 -14 126 -19 145 -5 19 -15 71 -21 115 -6 44 -15 94 -20
110 -5 17 -14 55 -20 85 -25 116 -147 507 -162 516 -4 3 -8 12 -8 20 0 8 -8
33 -19 57 -10 23 -25 58 -32 77 -7 19 -57 121 -109 225 -71 139 -101 191 -116
193 -13 2 -53 -32 -129 -108 -60 -60 -114 -110 -120 -110 -6 0 -51 -40 -100
-90 -49 -49 -94 -90 -100 -90 -18 0 -235 -225 -235 -243 0 -10 18 -54 40 -99
22 -46 40 -86 40 -91 0 -4 9 -26 20 -50 10 -23 33 -87 50 -142 18 -55 35 -109
40 -120 5 -11 11 -31 13 -45 5 -23 26 -109 47 -190 5 -19 12 -55 15 -80 4 -25
11 -70 16 -100 37 -216 37 -659 0 -915 -11 -79 -39 -217 -60 -300 -6 -22 -14
-58 -19 -80 -13 -55 -59 -191 -83 -242 -10 -24 -19 -46 -19 -51 0 -5 -9 -27
-20 -50 -11 -22 -20 -45 -20 -49 0 -13 -142 -292 -173 -340 -15 -24 -27 -46
-27 -51 0 -5 -9 -17 -20 -27 -11 -10 -20 -23 -20 -30 0 -7 -9 -20 -20 -30 -11
-10 -20 -23 -20 -30 0 -7 -9 -20 -20 -30 -11 -10 -20 -23 -20 -30 0 -7 -9 -20
-20 -30 -11 -10 -20 -23 -20 -30 0 -6 -13 -24 -30 -40 -16 -16 -30 -34 -30
-40 0 -6 -27 -37 -60 -70 -33 -33 -60 -64 -60 -70 0 -13 -212 -225 -226 -225
-5 0 -32 -23 -59 -50 -27 -28 -54 -50 -60 -50 -6 0 -29 -18 -50 -40 -21 -22
-44 -40 -50 -40 -6 0 -24 -13 -40 -30 -16 -16 -34 -30 -40 -30 -7 0 -20 -9
-30 -20 -10 -11 -24 -20 -30 -20 -7 0 -18 -7 -25 -15 -7 -9 -33 -25 -56 -35
-24 -11 -45 -24 -49 -30 -3 -5 -34 -23 -68 -39 -35 -17 -80 -41 -100 -55 -21
-15 -42 -26 -47 -26 -6 0 -47 -18 -92 -40 -46 -22 -86 -40 -91 -40 -4 0 -26
-9 -50 -19 -86 -40 -376 -129 -492 -151 -33 -6 -78 -15 -100 -20 -135 -29
-237 -35 -555 -35 -318 0 -420 6 -555 35 -22 5 -67 14 -100 20 -116 22 -406
111 -492 151 -24 10 -47 19 -51 19 -15 0 -382 187 -401 204 -9 9 -22 16 -28
16 -6 0 -16 7 -23 15 -7 9 -32 24 -54 35 -23 10 -52 30 -65 44 -14 14 -30 26
-36 26 -7 0 -20 9 -30 20 -10 11 -23 20 -30 20 -6 0 -24 13 -40 30 -16 16 -34
30 -39 30 -14 0 -466 452 -466 466 0 5 -18 28 -40 49 -22 21 -40 44 -40 50 0
7 -9 20 -20 30 -11 10 -20 23 -20 30 0 7 -9 20 -20 30 -11 10 -20 23 -20 30 0
7 -9 20 -20 30 -11 10 -20 24 -20 30 0 7 -7 18 -15 25 -9 7 -25 33 -35 56 -11
24 -24 45 -29 48 -10 7 -152 293 -171 346 -7 19 -17 39 -22 45 -4 5 -8 15 -8
22 0 7 -9 32 -19 56 -20 42 -42 110 -79 242 -32 111 -39 142 -62 275 -11 69
-25 150 -31 181 -5 31 -12 155 -15 275 -9 329 16 577 86 864 6 25 15 61 19 80
13 53 80 249 102 297 10 24 19 47 19 52 0 15 181 371 212 417 15 23 28 46 28
51 0 6 9 18 20 28 11 10 20 23 20 30 0 7 9 20 20 30 11 10 20 23 20 30 0 7 9
20 20 30 11 10 20 23 20 30 0 6 14 24 30 40 17 16 30 34 30 40 0 6 18 29 40
50 22 21 40 44 40 50 0 13 332 345 345 345 6 0 33 23 60 50 27 28 54 50 61 50
6 0 19 9 29 20 10 11 23 20 30 20 6 0 24 14 40 30 16 17 34 30 40 30 7 0 20 9
30 20 10 11 24 20 30 20 7 0 18 7 25 15 7 9 33 25 56 35 24 11 45 24 48 29 7
10 333 172 386 191 19 7 39 17 45 22 5 4 15 8 22 8 7 0 32 9 56 19 51 24 130
51 177 61 31 7 92 22 200 50 19 5 60 13 90 19 30 6 69 13 85 17 284 58 868 46
1165 -25 25 -6 61 -14 80 -17 19 -3 60 -15 91 -25 30 -10 65 -19 77 -19 11 0
23 -4 26 -9 3 -4 27 -14 53 -21 27 -7 67 -21 90 -31 24 -10 46 -19 51 -19 5 0
27 -9 50 -20 22 -11 45 -20 50 -20 13 0 340 -166 360 -182 9 -8 33 -22 53 -31
20 -9 42 -23 49 -32 7 -8 18 -15 25 -15 7 0 18 -7 25 -15 22 -27 44 -16 120
60 41 41 79 75 85 75 6 0 55 45 110 100 55 55 104 100 110 100 6 0 42 32 80
70 38 39 74 70 79 70 17 0 126 113 126 131 0 17 -30 49 -47 49 -5 0 -18 9 -28
20 -10 11 -23 20 -30 20 -6 0 -24 14 -40 30 -16 17 -34 30 -40 30 -7 0 -20 9
-30 20 -10 11 -24 20 -30 20 -7 0 -18 7 -25 15 -7 9 -33 25 -56 35 -24 11 -46
24 -49 30 -3 5 -23 17 -43 27 -20 10 -52 28 -71 40 -38 26 -294 153 -308 153
-5 0 -35 13 -68 30 -33 16 -65 30 -71 30 -5 0 -29 9 -52 20 -22 11 -47 20 -55
20 -7 0 -17 4 -22 9 -10 8 -160 58 -240 79 -22 6 -71 19 -110 30 -173 49 -410
93 -630 117 -141 16 -499 18 -720 4z"/>
</g>
</svg>
