<?xml version="1.0" encoding="UTF-8"?>
<svg version="1.1" xmlns="http://www.w3.org/2000/svg" width="45" height="45">
<path d="M0 0 C14.85 0 29.7 0 45 0 C45 14.85 45 29.7 45 45 C30.15 45 15.3 45 0 45 C0 30.15 0 15.3 0 0 Z " fill="#EFCB39" transform="translate(0,0)"/>
<path d="M0 0 C2.88582818 1.09462448 3.83211347 1.64655467 5.1875 4.5 C7.6858768 7.94603697 10.07642474 8.03242471 14.13671875 8.73828125 C14.75160156 8.82464844 15.36648437 8.91101562 16 9 C16 7.35 16 5.7 16 4 C13.36 4.99 10.72 5.98 8 7 C8 6.01 8 5.02 8 4 C14.23730703 0.94499247 18.68219548 0.01047935 25.5625 2.0625 C30.20137984 4.67714137 33.60562519 8.21125038 36 13 C36.20998895 16.66863041 36.09937006 20.32827618 36 24 C35.99484375 24.75667969 35.9896875 25.51335938 35.984375 26.29296875 C35.77241626 30.2066354 34.84948833 32.67444018 32.3125 35.5625 C29.93959587 37.64863136 29.45196772 38.02008745 26.1875 37.875 C24.6096875 37.441875 24.6096875 37.441875 23 37 C21.49946038 37.0108147 19.99893088 37.05469838 18.5 37.125 C14.22392693 37.1464878 11.60046166 36.48031803 8 34 C3.16141588 29.09326681 0.85461614 26.00812581 0.8125 19 C0.79832031 17.9275 0.78414063 16.855 0.76953125 15.75 C1 13 1 13 3 11 C3.96254164 13.88762493 4.02820226 15.35569642 3.875 18.3125 C3.83313725 22.59645509 4.53306135 25.38769698 7 29 C9.05093145 30.40466953 9.05093145 30.40466953 11 31 C11.66 29.02 12.32 27.04 13 25 C12.34 25 11.68 25 11 25 C6.21653008 20.82556604 4.60888839 17.33243929 4 11 C2.12852073 8.41557624 -0.11538849 7.29310171 -3 6 C-2.42655063 3.13275314 -2.1385485 2.1385485 0 0 Z " fill="#33290E" transform="translate(5,3)"/>
<path d="M0 0 C1.21839821 -0.00074776 1.21839821 -0.00074776 2.46141052 -0.00151062 C4.17701669 0.00082842 5.89262639 0.01054697 7.6081543 0.02709961 C10.2397311 0.05072413 12.87029701 0.04765563 15.50195312 0.04101562 C17.16797481 0.04659135 18.83399222 0.05370057 20.5 0.0625 C21.2895961 0.06158859 22.0791922 0.06067719 22.89271545 0.05973816 C28.45255583 0.13224333 28.45255583 0.13224333 30.68359375 2.36328125 C30.91064453 4.24267578 30.91064453 4.24267578 30.87890625 6.49609375 C30.87246094 7.30175781 30.86601563 8.10742188 30.859375 8.9375 C30.84261719 9.77925781 30.82585938 10.62101563 30.80859375 11.48828125 C30.79957031 12.33777344 30.79054687 13.18726563 30.78125 14.0625 C30.75765022 16.16288009 30.72177858 18.26311569 30.68359375 20.36328125 C28.68983616 18.36952366 28.037884 17.08386809 26.93359375 14.55078125 C24.62408906 9.8111261 21.72831503 6.64009985 16.74609375 4.55078125 C10.38103414 3.97213947 6.35255359 4.58664786 0.68359375 7.36328125 C3.52326606 7.36328125 5.92095086 6.96060944 8.68359375 6.36328125 C8.68359375 8.01328125 8.68359375 9.66328125 8.68359375 11.36328125 C5.49609375 11.67578125 5.49609375 11.67578125 1.68359375 11.36328125 C-1.297282 8.91233897 -3.17992623 6.56800127 -5.31640625 3.36328125 C-7.29640625 4.35328125 -7.29640625 4.35328125 -9.31640625 5.36328125 C-9.31640625 6.35328125 -9.31640625 7.34328125 -9.31640625 8.36328125 C-6.9402776 9.97235233 -6.9402776 9.97235233 -4.31640625 11.36328125 C-1.55049289 14.12919461 -1.84266515 16.54790424 -1.31640625 20.36328125 C-0.56764671 22.70053926 -0.56764671 22.70053926 0.68359375 24.36328125 C1.67359375 24.69328125 2.66359375 25.02328125 3.68359375 25.36328125 C3.68359375 26.02328125 3.68359375 26.68328125 3.68359375 27.36328125 C4.34359375 27.36328125 5.00359375 27.36328125 5.68359375 27.36328125 C5.02359375 29.34328125 4.36359375 31.32328125 3.68359375 33.36328125 C0.93721558 32.98447047 -0.11689683 32.58495838 -2.00390625 30.48828125 C-4.27519691 26.81095351 -4.42862691 23.90203702 -4.37890625 19.67578125 C-4.36988281 18.68191406 -4.36085938 17.68804688 -4.3515625 16.6640625 C-4.33996094 15.90480469 -4.32835937 15.14554688 -4.31640625 14.36328125 C-5.30640625 14.69328125 -6.29640625 15.02328125 -7.31640625 15.36328125 C-7.31640625 13.71328125 -7.31640625 12.06328125 -7.31640625 10.36328125 C-8.63640625 10.69328125 -9.95640625 11.02328125 -11.31640625 11.36328125 C-11.68102595 3.94934725 -11.68102595 3.94934725 -10.31787109 1.75830078 C-7.14589924 -0.45256128 -3.72904934 -0.04360694 0 0 Z " fill="#E1CC6A" transform="translate(12.31640625,0.63671875)"/>
<path d="M0 0 C14.85 0 29.7 0 45 0 C45 14.85 45 29.7 45 45 C30.15 45 15.3 45 0 45 C0 30.15 0 15.3 0 0 Z M2.00732422 2.00732422 C0.34997472 5.28587163 0.57376112 8.69003046 0.6015625 12.28125 C0.59869232 13.0911438 0.59582214 13.9010376 0.59286499 14.73547363 C0.59082458 16.44686584 0.59635291 18.15828138 0.60888672 19.86962891 C0.62494143 22.4904389 0.60903806 25.10970677 0.58984375 27.73046875 C0.59182619 29.39323257 0.59566987 31.05599544 0.6015625 32.71875 C0.59548981 33.50318481 0.58941711 34.28761963 0.5831604 35.0958252 C0.62042478 37.97585753 0.69323386 40.39315919 2.00732422 42.99267578 C5.28587163 44.65002528 8.69003046 44.42623888 12.28125 44.3984375 C13.0911438 44.40130768 13.9010376 44.40417786 14.73547363 44.40713501 C16.44686584 44.40917542 18.15828138 44.40364709 19.86962891 44.39111328 C22.4904389 44.37505857 25.10970677 44.39096194 27.73046875 44.41015625 C29.39323257 44.40817381 31.05599544 44.40433013 32.71875 44.3984375 C33.50318481 44.40451019 34.28761963 44.41058289 35.0958252 44.4168396 C37.97585753 44.37957522 40.39315919 44.30676614 42.99267578 42.99267578 C44.65002528 39.71412837 44.42623888 36.30996954 44.3984375 32.71875 C44.40274277 31.5039093 44.40274277 31.5039093 44.40713501 30.26452637 C44.40917542 28.55313416 44.40364709 26.84171862 44.39111328 25.13037109 C44.37505857 22.5095611 44.39096194 19.89029323 44.41015625 17.26953125 C44.40817381 15.60676743 44.40433013 13.94400456 44.3984375 12.28125 C44.40451019 11.49681519 44.41058289 10.71238037 44.4168396 9.9041748 C44.37957522 7.02414247 44.30676614 4.60684081 42.99267578 2.00732422 C39.71412837 0.34997472 36.30996954 0.57376112 32.71875 0.6015625 C31.9088562 0.59869232 31.0989624 0.59582214 30.26452637 0.59286499 C28.55313416 0.59082458 26.84171862 0.59635291 25.13037109 0.60888672 C22.5095611 0.62494143 19.89029323 0.60903806 17.26953125 0.58984375 C15.60676743 0.59182619 13.94400456 0.59566987 12.28125 0.6015625 C11.10459778 0.59245346 11.10459778 0.59245346 9.9041748 0.5831604 C7.02414247 0.62042478 4.60684081 0.69323386 2.00732422 2.00732422 Z " fill="#3A2B09" transform="translate(0,0)"/>
<path d="M0 0 C2.88382167 1.09386339 3.83948592 1.67897184 5.25 4.5 C7.87599825 8.25142608 10.58094757 8.20312169 15 9 C14.85930804 11.12534659 14.71229079 13.25027529 14.5625 15.375 C14.48128906 16.55835937 14.40007813 17.74171875 14.31640625 18.9609375 C14 22 14 22 13 24 C9.09839108 22.73461332 6.97581195 21.65525211 5 18 C4.835 16.824375 4.67 15.64875 4.5 14.4375 C4.28587214 11.09982729 4.28587214 11.09982729 2.6875 9.1875 C0.86400088 7.90429692 -0.96649215 6.91157248 -3 6 C-2.42655063 3.13275314 -2.1385485 2.1385485 0 0 Z " fill="#2C2417" transform="translate(5,3)"/>
<path d="M0 0 C0.33 0 0.66 0 1 0 C1.07412765 5.21440513 1.12859104 10.42850393 1.16479492 15.64331055 C1.17988641 17.41745343 1.20036191 19.19155898 1.22631836 20.96557617 C1.26268641 23.51490487 1.27972238 26.06374059 1.29296875 28.61328125 C1.30845261 29.40712723 1.32393646 30.20097321 1.33988953 31.01887512 C1.34077928 33.92673862 1.31253983 36.3693941 0.00585938 39.00585938 C-3.3163625 40.65241335 -6.76411018 40.36362723 -10.38671875 40.29296875 C-11.20372757 40.28872391 -12.02073639 40.28447906 -12.86250305 40.28010559 C-15.47117107 40.26331691 -18.07906562 40.22566519 -20.6875 40.1875 C-22.45636905 40.17245337 -24.22525021 40.15876492 -25.99414062 40.14648438 C-30.32972496 40.11341286 -34.66473136 40.0616299 -39 40 C-39 39.67 -39 39.34 -39 39 C-30.42 39 -21.84 39 -13 39 C-13 38.34 -13 37.68 -13 37 C-12.2575 36.7525 -11.515 36.505 -10.75 36.25 C-7.60950215 34.82250098 -6.05120015 33.78377163 -4 31 C-3.49653661 28.25383603 -3.18872148 25.76129324 -3 23 C-2.82130073 21.49892611 -2.63415464 19.99882728 -2.4375 18.5 C-2.293125 17.345 -2.14875 16.19 -2 15 C-1.67 15 -1.34 15 -1 15 C-0.67 10.05 -0.34 5.1 0 0 Z " fill="#E8C83E" transform="translate(43,4)"/>
<path d="M0 0 C5.44533513 0.38895251 8.12686961 2.2148953 12 6 C14.08444253 9.03191641 14.20216133 11.36109611 14 15 C5.44527596 15.28999065 5.44527596 15.28999065 1 13 C0 12 0 12 -0.09765625 9.27734375 C-0.08605469 8.17519531 -0.07445313 7.07304687 -0.0625 5.9375 C-0.05347656 4.83277344 -0.04445313 3.72804688 -0.03515625 2.58984375 C-0.02355469 1.73519531 -0.01195313 0.88054688 0 0 Z " fill="#E8CD50" transform="translate(25,7)"/>
<path d="M0 0 C0.66 0.33 1.32 0.66 2 1 C1.96519531 1.72445313 1.93039062 2.44890625 1.89453125 3.1953125 C1.65433569 11.03513945 1.65433569 11.03513945 5 18 C7.05093145 19.40466953 7.05093145 19.40466953 9 20 C9 19.34 9 18.68 9 18 C10.32 17.67 11.64 17.34 13 17 C12.67 18.98 12.34 20.96 12 23 C17.19209404 23.21192221 21.126739 22.5912689 26 21 C26.33 21.66 26.66 22.32 27 23 C29.97 20.525 29.97 20.525 33 18 C32.66093677 21.05156911 31.73958327 22.33482151 29.8125 24.8125 C27 27 27 27 24.25 26.8125 C23.1775 26.544375 22.105 26.27625 21 26 C19.49948208 26.01349387 17.99904116 26.05709042 16.5 26.125 C12.22392693 26.1464878 9.60046166 25.48031803 6 23 C1.14579697 18.07742791 -1.14189881 15.02990438 -1.125 8 C-1.12757813 6.9275 -1.13015625 5.855 -1.1328125 4.75 C-1 2 -1 2 0 0 Z " fill="#3D300A" transform="translate(7,14)"/>
<path d="M0 0 C1.97909398 -0.02686553 3.95828971 -0.04633375 5.9375 -0.0625 C7.03964844 -0.07410156 8.14179687 -0.08570312 9.27734375 -0.09765625 C12 0 12 0 13 1 C13.08631874 2.34267413 13.10706473 3.68974322 13.09765625 5.03515625 C13.09443359 5.84404297 13.09121094 6.65292969 13.08789062 7.48632812 C13.07951172 8.33646484 13.07113281 9.18660156 13.0625 10.0625 C13.05798828 10.91650391 13.05347656 11.77050781 13.04882812 12.65039062 C13.03700373 14.76695663 13.01906769 16.88348685 13 19 C11.00624241 17.00624241 10.35429025 15.72058684 9.25 13.1875 C7.18352358 8.9069417 4.79813501 6.80731718 1 4 C0.34 3.34 -0.32 2.68 -1 2 C-0.67 1.34 -0.34 0.68 0 0 Z " fill="#EDD259" transform="translate(30,2)"/>
<path d="M0 0 C2.5 1.1875 2.5 1.1875 5 3 C5.1875 5.5625 5.1875 5.5625 5 8 C5.66 8.66 6.32 9.32 7 10 C11.11829319 9.73141566 14.14117459 9.07873506 17 6 C17.33425735 3.37374861 17.33425735 3.37374861 17 1 C17.99 1.33 18.98 1.66 20 2 C20 2.66 20 3.32 20 4 C20.66 4.33 21.32 4.66 22 5 C20.73058503 8.91402949 19.48832306 10.79072873 16 13 C15.34 12.67 14.68 12.34 14 12 C11.00162265 12 8.06393912 12.48834567 5.09375 12.87890625 C3 13 3 13 1 12 C1 10.35 1 8.7 1 7 C0.34 7 -0.32 7 -1 7 C-0.67 5.68 -0.34 4.36 0 3 C-0.66 2.67 -1.32 2.34 -2 2 C-1.34 2 -0.68 2 0 2 C0 1.34 0 0.68 0 0 Z " fill="#635834" transform="translate(18,25)"/>
<path d="M0 0 C3.3 0 6.6 0 10 0 C10.33 1.65 10.66 3.3 11 5 C7.44958582 8.23714234 4.88037243 9.89390495 0 10 C-1.9375 8.875 -1.9375 8.875 -3 7 C-2.6875 4.3125 -2.6875 4.3125 -2 2 C-1.34 2 -0.68 2 0 2 C0 1.34 0 0.68 0 0 Z " fill="#261F1A" transform="translate(25,26)"/>
<path d="M0 0 C14.85 0 29.7 0 45 0 C45 14.19 45 28.38 45 43 C44.01 42.67 43.02 42.34 42 42 C42.33 41.67 42.66 41.34 43 41 C43.11340974 38.28445608 43.1641802 35.59529957 43.16796875 32.87890625 C43.17129715 32.06381088 43.17462555 31.24871552 43.17805481 30.40892029 C43.18312742 28.68139207 43.18546303 26.95385402 43.18530273 25.22631836 C43.18748792 22.57714755 43.20563621 19.92839384 43.22460938 17.27929688 C43.22754344 15.6041681 43.22952815 13.92903733 43.23046875 12.25390625 C43.23765427 11.45803604 43.24483978 10.66216583 43.25224304 9.84217834 C43.41022877 5.45291907 43.41022877 5.45291907 41 2 C38.08191852 1.84903872 35.25926381 1.81715306 32.34375 1.875 C31.05664124 1.88635986 31.05664124 1.88635986 29.74353027 1.89794922 C26.99548589 1.92243736 24.24785531 1.9596962 21.5 2 C17.88542807 2.05301625 14.27106298 2.09309611 10.65625 2.125 C9.40152893 2.14989502 9.40152893 2.14989502 8.12145996 2.17529297 C6.08021119 2.1927114 4.03859696 2.10546285 2 2 C1.34 1.34 0.68 0.68 0 0 Z " fill="#160B03" transform="translate(0,0)"/>
<path d="M0 0 C0.99 0 1.98 0 3 0 C4.5111995 5.03733166 3.64599773 9.88171027 3 15 C2.34 15 1.68 15 1 15 C1.14058476 17.45873768 1.28722999 19.91685175 1.4375 22.375 C1.47681641 23.07367188 1.51613281 23.77234375 1.55664062 24.4921875 C1.74280134 28.37360492 1.74280134 28.37360492 3 32 C1.68 31.34 0.36 30.68 -1 30 C-1.02465746 25.8882744 -1.04283959 21.77657722 -1.05493164 17.66479492 C-1.0599708 16.26504772 -1.06680216 14.8653058 -1.07543945 13.46557617 C-1.0875232 11.45754223 -1.09269807 9.44947043 -1.09765625 7.44140625 C-1.10289307 6.23170166 -1.10812988 5.02199707 -1.11352539 3.77563477 C-1 1 -1 1 0 0 Z " fill="#EACE51" transform="translate(2,11)"/>
<path d="M0 0 C0.66 0 1.32 0 2 0 C5 3.46153846 5 3.46153846 5 6 C5.99 6.33 6.98 6.66 8 7 C8 7.66 8 8.32 8 9 C8.66 9 9.32 9 10 9 C9.34 10.98 8.68 12.96 8 15 C5.25362183 14.62118922 4.19950942 14.22167713 2.3125 12.125 C-0.19442693 8.06616592 -0.08807374 4.66790835 0 0 Z " fill="#DCC252" transform="translate(8,19)"/>
<path d="M0 0 C0.33 0 0.66 0 1 0 C1 12.21 1 24.42 1 37 C0.67 37 0.34 37 0 37 C-0.33 32.71 -0.66 28.42 -1 24 C-1.33 25.98 -1.66 27.96 -2 30 C-4.27477677 26.46145836 -3.99082706 24.29052627 -3.125 20.25 C-2.92132813 19.26515625 -2.71765625 18.2803125 -2.5078125 17.265625 C-2.34023438 16.51796875 -2.17265625 15.7703125 -2 15 C-1.67 15 -1.34 15 -1 15 C-0.67 10.05 -0.34 5.1 0 0 Z " fill="#CDB651" transform="translate(43,4)"/>
<path d="M0 0 C0.33 0.66 0.66 1.32 1 2 C4.02934491 2.65772428 4.02934491 2.65772428 7 3 C7 3.33 7 3.66 7 4 C-5.21 4 -17.42 4 -30 4 C-30 3.67 -30 3.34 -30 3 C-21.42 3 -12.84 3 -4 3 C-4 2.34 -4 1.68 -4 1 C-2.68 0.67 -1.36 0.34 0 0 Z " fill="#DBBE49" transform="translate(34,40)"/>
<path d="M0 0 C0.66 0 1.32 0 2 0 C2.0270043 1.45823212 2.04639787 2.91660675 2.0625 4.375 C2.07410156 5.18710937 2.08570313 5.99921875 2.09765625 6.8359375 C2 9 2 9 1 11 C0.34 11 -0.32 11 -1 11 C-1.433125 10.525625 -1.86625 10.05125 -2.3125 9.5625 C-4.44693733 7.58616914 -6.16307947 7.38336764 -9 7 C-6.36095629 5.58622659 -3.92879371 4.62759865 -1 4 C-0.67 2.68 -0.34 1.36 0 0 Z " fill="#2C2209" transform="translate(39,18)"/>
<path d="M0 0 C-1.98 0.99 -1.98 0.99 -4 2 C-3.67 2.66 -3.34 3.32 -3 4 C-6.3 4 -9.6 4 -13 4 C-13 4.66 -13 5.32 -13 6 C-13.66 6 -14.32 6 -15 6 C-14.67 5.01 -14.34 4.02 -14 3 C-11.9375 2.3125 -11.9375 2.3125 -10 2 C-10 1.34 -10 0.68 -10 0 C-6.7169902 -1.6415049 -3.57454967 -0.51888624 0 0 Z " fill="#5E5333" transform="translate(38,22)"/>
<path d="M0 0 C1.32 0 2.64 0 4 0 C4 1.65 4 3.3 4 5 C-2.52307692 5.36923077 -2.52307692 5.36923077 -4.9375 3.5 C-5.4634375 2.7575 -5.4634375 2.7575 -6 2 C-4.7934375 1.7834375 -4.7934375 1.7834375 -3.5625 1.5625 C-1.07896294 1.25864751 -1.07896294 1.25864751 0 0 Z " fill="#C7B45F" transform="translate(17,7)"/>
<path d="M0 0 C0.33 0 0.66 0 1 0 C1.0928125 1.1446875 1.0928125 1.1446875 1.1875 2.3125 C1.75825317 5.20660819 1.75825317 5.20660819 4.4375 6.6875 C5.283125 7.120625 6.12875 7.55375 7 8 C9 10 9 10 9.125 12.625 C9.08375 13.40875 9.0425 14.1925 9 15 C8.34 15 7.68 15 7 15 C7 13.68 7 12.36 7 11 C6.01 11.33 5.02 11.66 4 12 C4 10.35 4 8.7 4 7 C2.68 7.33 1.36 7.66 0 8 C0 5.36 0 2.72 0 0 Z " fill="#C5B261" transform="translate(1,4)"/>
<path d="M0 0 C0.33 0 0.66 0 1 0 C1.02578125 0.58007812 1.0515625 1.16015625 1.078125 1.7578125 C1.47855458 7.27281992 2.49754161 10.54232569 6 15 C6.99 16.485 6.99 16.485 8 18 C7.01 18 6.02 18 5 18 C2 14.66666667 2 14.66666667 2 12 C1.34 12 0.68 12 0 12 C0 8.04 0 4.08 0 0 Z " fill="#C6AD42" transform="translate(5,19)"/>
<path d="M0 0 C-0.33 2.31 -0.66 4.62 -1 7 C-1.66 6.67 -2.32 6.34 -3 6 C-3.66 9.3 -4.32 12.6 -5 16 C-5.33 16 -5.66 16 -6 16 C-5.85930804 13.87465341 -5.71229079 11.74972471 -5.5625 9.625 C-5.48128906 8.44164062 -5.40007813 7.25828125 -5.31640625 6.0390625 C-5 3 -5 3 -4 1 C-1 0 -1 0 0 0 Z " fill="#6E633B" transform="translate(25,9)"/>
<path d="M0 0 C0.33 0.99 0.66 1.98 1 3 C0.09972412 4.03531726 -0.82093035 5.05294165 -1.75 6.0625 C-2.51570313 6.91521484 -2.51570313 6.91521484 -3.296875 7.78515625 C-5 9 -5 9 -7.203125 8.68359375 C-7.79609375 8.45800781 -8.3890625 8.23242188 -9 8 C-8.51789062 7.67386719 -8.03578125 7.34773438 -7.5390625 7.01171875 C-6.90742187 6.57472656 -6.27578125 6.13773438 -5.625 5.6875 C-4.99851562 5.25824219 -4.37203125 4.82898437 -3.7265625 4.38671875 C-1.73621155 2.93079661 -1.73621155 2.93079661 0 0 Z " fill="#312405" transform="translate(39,32)"/>
<path d="M0 0 C1.65 0.99 3.3 1.98 5 3 C4.67 4.65 4.34 6.3 4 8 C2.35 7.67 0.7 7.34 -1 7 C-0.67 5.68 -0.34 4.36 0 3 C-0.66 2.67 -1.32 2.34 -2 2 C-1.34 2 -0.68 2 0 2 C0 1.34 0 0.68 0 0 Z " fill="#61562D" transform="translate(18,25)"/>
<path d="M0 0 C2.7972908 2.06756277 3.02692273 3.14440371 3.6875 6.6875 C3.790625 7.780625 3.89375 8.87375 4 10 C2.02 10 0.04 10 -2 10 C-0.68 9.67 0.64 9.34 2 9 C2 7.68 2 6.36 2 5 C1.34 5 0.68 5 0 5 C0 3.35 0 1.7 0 0 Z " fill="#D7BE5A" transform="translate(35,12)"/>
<path d="M0 0 C2.5 1.375 2.5 1.375 5 3 C5 3.66 5 4.32 5 5 C3.02 5 1.04 5 -1 5 C-0.67 3.35 -0.34 1.7 0 0 Z " fill="#CBB351" transform="translate(20,32)"/>
<path d="M0 0 C0.99 0 1.98 0 3 0 C5 3 5 3 5 6 C3.68 5.67 2.36 5.34 1 5 C0.67 3.35 0.34 1.7 0 0 Z " fill="#F0D03D" transform="translate(11,26)"/>
<path d="M0 0 C0.33 1.32 0.66 2.64 1 4 C3.31 4.33 5.62 4.66 8 5 C8 5.33 8 5.66 8 6 C5.36 6 2.72 6 0 6 C-0.66 4.68 -1.32 3.36 -2 2 C-1.34 1.34 -0.68 0.68 0 0 Z " fill="#292108" transform="translate(18,33)"/>
<path d="M0 0 C0.66 0.66 1.32 1.32 2 2 C2.66 1.67 3.32 1.34 4 1 C4 2.65 4 4.3 4 6 C2.02 6.99 2.02 6.99 0 8 C0 5.36 0 2.72 0 0 Z " fill="#2E2711" transform="translate(21,13)"/>
</svg>
