<?xml version="1.0" encoding="UTF-8"?>
<svg version="1.1" xmlns="http://www.w3.org/2000/svg" width="92" height="92">
<path d="M0 0 C30.36 0 60.72 0 92 0 C92 30.36 92 60.72 92 92 C61.64 92 31.28 92 0 92 C0 61.64 0 31.28 0 0 Z " fill="#EAC83B" transform="translate(0,0)"/>
<path d="M0 0 C7.36492329 7.00250176 12.13647732 16.70063702 12.66015625 26.86328125 C12.46510675 33.75503026 10.30130453 40.95598468 7.22265625 47.11328125 C7.88265625 47.11328125 8.54265625 47.11328125 9.22265625 47.11328125 C9.85817337 51.35006207 9.14011763 53.71576797 6.72265625 57.11328125 C2.79595158 61.94971891 -1.7109798 66.2189251 -7.77734375 67.98828125 C-8.43734375 68.02953125 -9.09734375 68.07078125 -9.77734375 68.11328125 C-10.76734375 66.79328125 -11.75734375 65.47328125 -12.77734375 64.11328125 C-9.47734375 62.13328125 -6.17734375 60.15328125 -2.77734375 58.11328125 C-13.1027171 64.34187271 -22.90071986 65.96925266 -34.77734375 64.11328125 C-44.33109766 61.3193576 -52.2188627 54.92461361 -57.40625 46.453125 C-62.03952288 37.49018401 -63.7127009 27.90815962 -60.8828125 17.97265625 C-59.93479772 15.62774335 -58.93703675 13.36018645 -57.77734375 11.11328125 C-56.45734375 12.43328125 -55.13734375 13.75328125 -53.77734375 15.11328125 C-54.09960938 15.96277344 -54.421875 16.81226562 -54.75390625 17.6875 C-57.15785116 25.73429271 -56.95085997 34.66119083 -52.98046875 42.140625 C-52.38492188 43.11708984 -52.38492188 43.11708984 -51.77734375 44.11328125 C-51.18179688 45.13615234 -51.18179688 45.13615234 -50.57421875 46.1796875 C-48.65657114 49.18359753 -47.39816533 50.90634072 -43.96484375 52.05078125 C-43.24296875 52.07140625 -42.52109375 52.09203125 -41.77734375 52.11328125 C-35.73807296 44.34850452 -33.63633973 34.76223631 -32.171875 25.1953125 C-31.77734375 23.11328125 -31.77734375 23.11328125 -30.77734375 22.11328125 C-30.36855295 19.04671877 -30.26038031 15.95112993 -30.08984375 12.86328125 C-30.02990234 12.00347656 -29.96996094 11.14367187 -29.90820312 10.2578125 C-29.65241469 5.70968392 -29.54869027 2.24610993 -31.77734375 -1.88671875 C-35.60969979 -1.52173246 -37.67352443 -0.95731589 -40.90234375 1.23828125 C-43.77734375 3.11328125 -43.77734375 3.11328125 -46.08984375 3.05078125 C-47.77734375 2.11328125 -47.77734375 2.11328125 -48.77734375 -0.88671875 C-46.57386315 -2.04279145 -44.36531219 -3.18656596 -42.15234375 -4.32421875 C-41.53488281 -4.64970703 -40.91742188 -4.97519531 -40.28125 -5.31054688 C-26.89991612 -12.14206996 -11.69553611 -8.88100059 0 0 Z " fill="#302818" transform="translate(72.77734375,16.88671875)"/>
<path d="M0 0 C4.87472347 4.63568274 9.15032373 10.52887762 10.16796875 17.30859375 C10.18859375 18.23671875 10.20921875 19.16484375 10.23046875 20.12109375 C9.57046875 20.12109375 8.91046875 20.12109375 8.23046875 20.12109375 C8.23046875 22.43109375 8.23046875 24.74109375 8.23046875 27.12109375 C7.90046875 27.12109375 7.57046875 27.12109375 7.23046875 27.12109375 C6.92109375 25.23390625 6.92109375 25.23390625 6.60546875 23.30859375 C4.71479948 14.98439712 0.87821848 7.23990643 -6.3359375 2.40234375 C-11.27432423 -0.19764156 -16.50154566 -2.06402097 -21.76953125 -3.87890625 C-22.51030785 10.73681388 -22.51030785 10.73681388 -17.76953125 24.12109375 C-14.90283635 25.35961687 -14.90283635 25.35961687 -11.64453125 26.30859375 C-10.54882812 26.65277344 -9.453125 26.99695312 -8.32421875 27.3515625 C-7.05964844 27.73248047 -7.05964844 27.73248047 -5.76953125 28.12109375 C-5.76953125 28.78109375 -5.76953125 29.44109375 -5.76953125 30.12109375 C-6.90390625 30.10046875 -8.03828125 30.07984375 -9.20703125 30.05859375 C-12.58528799 29.70531898 -12.58528799 29.70531898 -13.76953125 31.12109375 C-10.46953125 31.78109375 -7.16953125 32.44109375 -3.76953125 33.12109375 C-3.76953125 33.45109375 -3.76953125 33.78109375 -3.76953125 34.12109375 C-4.93871094 34.17007813 -6.10789063 34.2190625 -7.3125 34.26953125 C-8.86069929 34.34459546 -10.40887526 34.4201417 -11.95703125 34.49609375 C-12.72595703 34.52703125 -13.49488281 34.55796875 -14.28710938 34.58984375 C-18.55028191 34.80940628 -21.83670502 35.32818768 -25.76953125 37.12109375 C-28.58203125 37.24609375 -28.58203125 37.24609375 -30.76953125 37.12109375 C-31.09953125 38.77109375 -31.42953125 40.42109375 -31.76953125 42.12109375 C-31.10953125 41.13109375 -30.44953125 40.14109375 -29.76953125 39.12109375 C-28.77953125 39.12109375 -27.78953125 39.12109375 -26.76953125 39.12109375 C-27.77292085 41.63631701 -28.78100956 44.14920479 -29.8046875 46.65625 C-30.14371094 47.49027344 -30.48273437 48.32429688 -30.83203125 49.18359375 C-31.17363281 50.02019531 -31.51523437 50.85679688 -31.8671875 51.71875 C-32.66571581 53.84470198 -33.27374828 55.90795946 -33.76953125 58.12109375 C-23.88333254 60.9130295 -15.73583866 58.68726882 -6.76953125 54.12109375 C-5.77953125 53.46109375 -4.78953125 52.80109375 -3.76953125 52.12109375 C-2.77953125 53.44109375 -1.78953125 54.76109375 -0.76953125 56.12109375 C-2.32914487 57.08411731 -3.8923635 58.04130379 -5.45703125 58.99609375 C-6.32714844 59.52976562 -7.19726562 60.0634375 -8.09375 60.61328125 C-16.43509347 65.31365874 -25.3878358 65.24404526 -34.76953125 64.12109375 C-44.31534595 61.39519878 -52.23256305 54.89729361 -57.3984375 46.4609375 C-62.03171038 37.49799651 -63.7048884 27.91597212 -60.875 17.98046875 C-59.92698522 15.63555585 -58.92922425 13.36799895 -57.76953125 11.12109375 C-56.44953125 12.44109375 -55.12953125 13.76109375 -53.76953125 15.12109375 C-54.09179688 15.97058594 -54.4140625 16.82007812 -54.74609375 17.6953125 C-57.15003866 25.74210521 -56.94304747 34.66900333 -52.97265625 42.1484375 C-52.37710938 43.12490234 -52.37710938 43.12490234 -51.76953125 44.12109375 C-51.17398438 45.14396484 -51.17398438 45.14396484 -50.56640625 46.1875 C-48.64875864 49.19141003 -47.39035283 50.91415322 -43.95703125 52.05859375 C-43.23515625 52.07921875 -42.51328125 52.09984375 -41.76953125 52.12109375 C-35.73026046 44.35631702 -33.62852723 34.77004881 -32.1640625 25.203125 C-31.76953125 23.12109375 -31.76953125 23.12109375 -30.76953125 22.12109375 C-30.36074045 19.05453127 -30.25256781 15.95894243 -30.08203125 12.87109375 C-30.02208984 12.01128906 -29.96214844 11.15148437 -29.90039062 10.265625 C-29.64460219 5.71749642 -29.54087777 2.25392243 -31.76953125 -1.87890625 C-35.60188729 -1.51391996 -37.66571193 -0.94950339 -40.89453125 1.24609375 C-43.76953125 3.12109375 -43.76953125 3.12109375 -46.08203125 3.05859375 C-47.76953125 2.12109375 -47.76953125 2.12109375 -48.76953125 -0.87890625 C-46.56605065 -2.03497895 -44.35749969 -3.17875346 -42.14453125 -4.31640625 C-41.52707031 -4.64189453 -40.90960938 -4.96738281 -40.2734375 -5.30273438 C-26.89432885 -12.13312142 -11.69750789 -8.87331349 0 0 Z " fill="#2E2617" transform="translate(72.76953125,16.87890625)"/>
<path d="M0 0 C0.68169754 -0.0065712 1.36339508 -0.0131424 2.06575012 -0.01991272 C4.32085283 -0.03961555 6.57588897 -0.05130244 8.83105469 -0.0612793 C9.60287834 -0.06535482 10.374702 -0.06943035 11.16991425 -0.07362938 C15.25633983 -0.09447876 19.34273197 -0.10878451 23.42919922 -0.11816406 C27.64027022 -0.12921727 31.85081118 -0.16360733 36.0616951 -0.20333576 C39.30803376 -0.22954076 42.55424695 -0.23785938 45.80068207 -0.24144554 C47.35235925 -0.24630266 48.90403115 -0.25789174 50.45560455 -0.27648354 C65.62140948 -0.44689146 65.62140948 -0.44689146 71.25292969 4.17700195 C72.7939651 7.25907277 72.41583058 10.50558936 72.42089844 13.88793945 C72.42589104 15.03475693 72.42589104 15.03475693 72.4309845 16.20474243 C72.43605091 17.82374469 72.43839291 19.4427574 72.43823242 21.06176758 C72.44041491 23.53525088 72.45856217 26.00828533 72.47753906 28.48168945 C72.48047387 30.05460459 72.48245808 31.62752185 72.48339844 33.20043945 C72.49058395 33.93910248 72.49776947 34.6777655 72.50517273 35.43881226 C72.48847747 39.20461788 72.31047613 41.97721991 70.25292969 45.17700195 C69.69605469 46.29075195 69.69605469 46.29075195 69.12792969 47.42700195 C68.83917969 48.00450195 68.55042969 48.58200195 68.25292969 49.17700195 C68.14078125 47.65333008 68.14078125 47.65333008 68.02636719 46.09887695 C67.07599419 35.46325666 64.79886506 26.82870538 57.94042969 18.30200195 C48.56408462 10.88814771 39.51235142 6.18833891 27.25292969 7.17700195 C21.10605998 7.97157039 16.38337081 9.92985446 11.10058594 13.15356445 C9.25292969 14.17700195 9.25292969 14.17700195 7.25292969 14.17700195 C8.24292969 15.66200195 8.24292969 15.66200195 9.25292969 17.17700195 C13.01511458 16.38761494 15.93237963 14.79996976 19.25292969 12.91918945 C21.25292969 12.17700195 21.25292969 12.17700195 23.37792969 12.24731445 C25.25292969 13.17700195 25.25292969 13.17700195 26.52636719 15.1262207 C27.56523449 19.48834633 27.20942444 23.54415731 26.87792969 27.98950195 C26.79285156 29.31498047 26.79285156 29.31498047 26.70605469 30.66723633 C26.56525832 32.83784705 26.41047629 35.00754267 26.25292969 37.17700195 C25.26292969 37.67200195 25.26292969 37.67200195 24.25292969 38.17700195 C24.58292969 33.22700195 24.91292969 28.27700195 25.25292969 23.17700195 C21.56619611 22.25531856 20.18739914 22.28152461 16.62792969 22.73950195 C12.90729524 22.8057447 11.50034127 22.35756417 8.44824219 20.13012695 C1.80225803 13.61898885 1.80225803 13.61898885 0.22167969 9.4699707 C-0.66607737 6.67594328 -0.66607737 6.67594328 -4.74707031 5.17700195 C-7.38707031 7.81700195 -10.02707031 10.45700195 -12.74707031 13.17700195 C-12.08707031 14.49700195 -11.42707031 15.81700195 -10.74707031 17.17700195 C-10.08040365 18.51033529 -9.41373698 19.84366862 -8.74707031 21.17700195 C-10.39707031 20.18700195 -12.04707031 19.19700195 -13.74707031 18.17700195 C-13.63948241 26.19180109 -13.52683159 34.20650629 -13.40773106 42.22114182 C-13.3525857 45.94272708 -13.29917929 49.66432032 -13.24975586 53.38598633 C-13.20198836 56.97812867 -13.14964141 60.57017784 -13.09412956 64.16220856 C-13.07376204 65.53209358 -13.05503985 66.9020041 -13.03799629 68.27193451 C-13.0138282 70.19184765 -12.98324806 72.11167683 -12.95239258 74.03149414 C-12.9368483 75.12403503 -12.92130402 76.21657593 -12.9052887 77.34222412 C-12.76902043 79.78372463 -12.44986449 81.84587459 -11.74707031 84.17700195 C-13.2208252 83.11689758 -13.2208252 83.11689758 -14.74707031 81.17700195 C-15.14147949 78.04728699 -15.14147949 78.04728699 -15.16699219 74.13867188 C-15.17546173 73.42610733 -15.18393127 72.71354279 -15.19265747 71.97938538 C-15.21607044 69.62189922 -15.21704843 67.26506438 -15.21582031 64.9074707 C-15.22292101 63.26703124 -15.23061988 61.62659426 -15.2388916 59.98616028 C-15.25234746 56.54539086 -15.25390104 53.10485089 -15.24804688 49.6640625 C-15.24215962 45.26212144 -15.27269557 40.86128669 -15.31316376 36.45955944 C-15.33906413 33.06995244 -15.34191591 29.68061066 -15.33827209 26.29091835 C-15.3399622 24.66864563 -15.34959428 23.04636051 -15.36741638 21.4241848 C-15.38964683 19.14988568 -15.37988578 16.87780958 -15.36230469 14.60351562 C-15.36435913 13.31128586 -15.36641357 12.01905609 -15.36853027 10.68766785 C-14.54782623 6.05145978 -13.08462477 4.45067287 -9.74707031 1.17700195 C-6.3114196 0.03178505 -3.62457702 0.02892595 0 0 Z " fill="#F0D556" transform="translate(16.7470703125,1.822998046875)"/>
<path d="M0 0 C30.36 0 60.72 0 92 0 C92 30.36 92 60.72 92 92 C61.64 92 31.28 92 0 92 C0 61.64 0 31.28 0 0 Z M3.21374512 6.74050903 C1.49442367 9.94117384 1.6037716 12.52819987 1.58007812 16.15185547 C1.57160858 16.86456604 1.56313904 17.57727661 1.55441284 18.31158447 C1.53104695 20.66363456 1.53002063 23.0150302 1.53125 25.3671875 C1.52414741 27.00619772 1.51644826 28.64520546 1.50817871 30.28421021 C1.49473435 33.7190034 1.49316454 37.15356677 1.49902344 40.58837891 C1.50491524 44.98244433 1.47435046 49.37540319 1.43390656 53.76925468 C1.40800921 57.15457056 1.40515402 60.53962085 1.40879822 63.92502213 C1.40710841 65.54450381 1.39747917 67.16399795 1.37965393 68.78338242 C1.35742509 71.05278451 1.36718305 73.31995861 1.38476562 75.58935547 C1.38271118 76.87856903 1.38065674 78.16778259 1.37854004 79.49606323 C2.19527216 84.10099013 3.73027454 85.71411032 7 89 C9.93553887 90.46776944 12.55537702 90.15168161 15.83300781 90.17700195 C16.53567276 90.18357315 17.23833771 90.19014435 17.96229553 90.19691467 C20.29257308 90.21665808 22.62278609 90.22831368 24.953125 90.23828125 C25.749179 90.24235678 26.545233 90.2464323 27.36540985 90.25063133 C31.58035524 90.27149841 35.79526802 90.28579627 40.01025391 90.29516602 C44.35932793 90.30622049 48.7078889 90.340607 53.05678177 90.38033772 C56.40430639 90.40651534 59.75170912 90.41485894 63.09932709 90.41844749 C64.70206917 90.42331201 66.30480586 90.43492225 67.90744781 90.45348549 C70.1551798 90.47789835 72.40158941 90.47690858 74.64941406 90.4699707 C75.92689514 90.47583694 77.20437622 90.48170319 78.52056885 90.48774719 C82.67415096 89.90549741 84.79421976 88.67064551 88 86 C90.54208314 82.60485195 90.25945743 79.15674316 90.2746582 75.01586914 C90.2823246 73.97365456 90.2823246 73.97365456 90.29014587 72.91038513 C90.3040212 70.61855402 90.30308672 68.32702432 90.30078125 66.03515625 C90.3046693 64.43859241 90.3090042 62.84202961 90.31376648 61.24546814 C90.32122423 57.90067185 90.32094064 54.55598112 90.31567383 51.21118164 C90.30987952 46.92939007 90.32681114 42.64803112 90.3500185 38.36631107 C90.36476546 35.06942731 90.36562625 31.77264752 90.36250877 28.47573662 C90.3630215 26.89731426 90.36825006 25.318886 90.37832069 23.74049568 C90.39068693 21.53122134 90.38389314 19.32278675 90.37231445 17.11352539 C90.37294388 15.857621 90.3735733 14.60171661 90.3742218 13.30775452 C89.95747979 9.62416292 89.3542728 7.85160821 87 5 C82.58521541 2.12139391 79.09326923 1.6219076 73.88061523 1.61181641 C73.19526703 1.60655945 72.50991882 1.60130249 71.80380249 1.59588623 C69.55516265 1.58276215 67.30723985 1.5913957 65.05859375 1.6015625 C63.4873084 1.5995398 61.91602397 1.59662673 60.34474182 1.59286499 C57.0589195 1.58845215 53.77334254 1.59483984 50.48754883 1.60888672 C46.28201272 1.62599233 42.07705046 1.61612246 37.8715353 1.59816933 C34.62953894 1.58731529 31.38767807 1.59078497 28.14567757 1.5985527 C26.59517409 1.60054951 25.0446582 1.59811372 23.49416924 1.59111404 C21.32577916 1.58347101 19.15831181 1.59514168 16.98999023 1.61181641 C15.75788315 1.61420319 14.52577606 1.61658997 13.2563324 1.61904907 C8.80843002 2.13939906 6.38124798 3.65412568 3.21374512 6.74050903 Z " fill="#281E02" transform="translate(0,0)"/>
<path d="M0 0 C3.17046184 1.54238684 4.74112079 2.46991399 6.3125 5.6875 C8.70199478 10.37798976 11.60292729 14.04398473 16 17 C18.721731 17.4570223 20.96870249 17.40814652 23.703125 17.0859375 C26.37495927 16.98597091 27.73594832 17.63949188 30 19 C30.05423638 20.91635217 30.09289963 22.83314925 30.125 24.75 C30.14820313 25.81734375 30.17140625 26.8846875 30.1953125 27.984375 C29.99779411 31.03405898 29.40237434 32.36665262 28 35 C27.61003316 36.96879092 27.28068039 38.95018263 27 40.9375 C26.43558784 44.92366085 25.63017972 48.31171839 24 52 C12.17241379 42.34482759 12.17241379 42.34482759 9 36 C8.97410935 34.10422899 8.95415135 32.20837468 8.9375 30.3125 C8.58174244 25.52698695 7.93479806 23.14660817 4.3125 19.9375 C1.06183848 17.53154443 -2.33191849 15.70608442 -6 14 C-7.875 12.3125 -7.875 12.3125 -9 11 C-7.59155282 7.78475695 -5.89655214 5.67816132 -3.375 3.25 C-2.74335938 2.63640625 -2.11171875 2.0228125 -1.4609375 1.390625 C-0.73777344 0.70226562 -0.73777344 0.70226562 0 0 Z " fill="#27211C" transform="translate(12,6)"/>
<path d="M0 0 C8.99594332 1.4509586 16.72180277 4.61486645 22.4375 12 C23.31527742 13.31790944 24.17208999 14.65020613 25 16 C25.61875 16.94875 26.2375 17.8975 26.875 18.875 C28.44288897 23.23024713 28.44935484 27.41139574 28 32 C27 33 27 33 23.3125 33.3125 C16.58316261 33.23664596 7.12073693 32.04122771 2.16015625 27.20703125 C-1.64645597 19.96549622 -1.6172417 10.00978769 -1 2 C-0.67 1.34 -0.34 0.68 0 0 Z " fill="#EED14B" transform="translate(51,13)"/>
<path d="M0 0 C2.625 1.75 2.625 1.75 4 4 C4.10551515 8.00957553 2.20597273 10.57342777 -0.41015625 13.515625 C-4.41240477 17.25236809 -9.70279824 20.56832385 -15 22 C-19.4184094 21.6148426 -21.32074501 20.13208584 -24.3125 16.9375 C-25.00988281 16.20402344 -25.70726562 15.47054687 -26.42578125 14.71484375 C-26.94527344 14.14894531 -27.46476562 13.58304688 -28 13 C-26.65677666 7.99344026 -24.53050549 3.80288871 -21 0 C-14.69677881 -2.10107373 -6.43810026 -1.54205994 0 0 Z " fill="#28211B" transform="translate(71,53)"/>
<path d="M0 0 C4.73132887 2.23276194 8.83073798 4.76211846 12 9 C12.6384581 12.1171778 12.74928549 15.03370524 12.828125 18.2109375 C13.29364617 25.76507655 20.86338099 31.06094326 26 36 C27.72694735 31.79525863 29.11967472 28.09735893 29.5625 23.5625 C29.706875 22.386875 29.85125 21.21125 30 20 C30.66 19.67 31.32 19.34 32 19 C31.97043304 25.97780323 30.55238747 32.01715316 28.125 38.5 C27.86831543 39.19416016 27.61163086 39.88832031 27.34716797 40.60351562 C24.70138317 47.38178013 24.70138317 47.38178013 22 49 C18.81519679 48.92417135 17.4216368 48.39324085 15.0859375 46.21484375 C7.74938775 36.44952754 6.10944364 29.33639542 7 17 C7.46739736 14.48723984 8.08812929 12.39366063 9 10 C8.01 9.34 7.02 8.68 6 8 C2.96846681 15.64473588 2.3376774 22.814234 2 31 C1.34 31 0.68 31 0 31 C-0.41959816 22.91107987 -0.40139505 16.28625907 3.125 8.890625 C4.14000306 7.04470801 4.14000306 7.04470801 4 5 C3.34 4.67 2.68 4.34 2 4 C2 3.34 2 2.68 2 2 C1.34 2 0.68 2 0 2 C0 1.34 0 0.68 0 0 Z " fill="#E4C746" transform="translate(9,21)"/>
<path d="M0 0 C1.03218407 -0.00503792 1.03218407 -0.00503792 2.08522034 -0.01017761 C4.35956629 -0.01967575 6.63383857 -0.02162999 8.90820312 -0.02270508 C10.48856639 -0.02591788 12.06892936 -0.02928197 13.64929199 -0.03279114 C16.96135142 -0.03877915 20.27338476 -0.04063132 23.58544922 -0.04003906 C27.83261628 -0.03993733 32.07961658 -0.05360272 36.32674408 -0.07081127 C39.59007539 -0.08191937 42.85336619 -0.08395866 46.11671448 -0.08342934 C47.68283158 -0.08461074 49.24894969 -0.0890415 50.81504822 -0.0967617 C53.00312057 -0.10653999 55.19082825 -0.10369257 57.37890625 -0.09765625 C58.62450317 -0.09908127 59.8701001 -0.10050629 61.15344238 -0.10197449 C64.18945312 0.14526367 64.18945312 0.14526367 67.18945312 2.14526367 C63.83519376 3.26335013 61.35607943 3.25219903 57.82202148 3.22705078 C56.50733383 3.22051987 55.19264618 3.21398895 53.83811951 3.20726013 C52.78492932 3.19864865 52.78492932 3.19864865 51.71046257 3.1898632 C49.51274318 3.17247646 47.31509643 3.16217554 45.11732483 3.15394592 C38.86940643 3.1294838 32.6215863 3.09382538 26.3737793 3.04931641 C22.55132759 3.02258064 18.72893213 3.00550823 14.9064045 2.99444771 C13.44829791 2.98822781 11.99020252 2.97820995 10.53214836 2.96436882 C8.49732738 2.9452193 6.46239457 2.93932431 4.42749023 2.93408203 C3.26849716 2.9266246 2.10950409 2.91916718 0.91539001 2.91148376 C-1.95779332 2.86311009 -1.95779332 2.86311009 -3.81054688 5.14526367 C-5.58478907 6.60985039 -7.36595635 8.06510778 -9.15429688 9.51245117 C-10.92979988 11.26282914 -11.82579911 12.87049633 -12.81054688 15.14526367 C-11.49054687 16.46526367 -10.17054687 17.78526367 -8.81054688 19.14526367 C-9.14054688 19.80526367 -9.47054688 20.46526367 -9.81054688 21.14526367 C-11.13054688 20.15526367 -12.45054688 19.16526367 -13.81054688 18.14526367 C-13.70295898 26.1600628 -13.59030815 34.17476801 -13.47120762 42.18940353 C-13.41606226 45.9109888 -13.36265585 49.63258204 -13.31323242 53.35424805 C-13.26546492 56.94639039 -13.21311797 60.53843956 -13.15760612 64.13047028 C-13.1372386 65.5003553 -13.11851642 66.87026582 -13.10147285 68.24019623 C-13.07730477 70.16010937 -13.04672463 72.07993855 -13.01586914 73.99975586 C-13.00032486 75.09229675 -12.98478058 76.18483765 -12.96876526 77.31048584 C-12.83249699 79.75198635 -12.51334105 81.81413631 -11.81054688 84.14526367 C-13.28430176 83.0851593 -13.28430176 83.0851593 -14.81054688 81.14526367 C-15.20495605 78.01554871 -15.20495605 78.01554871 -15.23046875 74.10693359 C-15.23893829 73.39436905 -15.24740784 72.6818045 -15.25613403 71.94764709 C-15.279547 69.59016094 -15.28052499 67.2333261 -15.27929688 64.87573242 C-15.28639757 63.23529295 -15.29409644 61.59485598 -15.30236816 59.954422 C-15.31582402 56.51365258 -15.31737761 53.07311261 -15.31152344 49.63232422 C-15.30563618 45.23038315 -15.33617213 40.82954841 -15.37664032 36.42782116 C-15.40254069 33.03821416 -15.40539247 29.64887238 -15.40174866 26.25918007 C-15.40343876 24.63690734 -15.41307084 23.01462222 -15.43089294 21.39244652 C-15.45312339 19.1181474 -15.44336234 16.8460713 -15.42578125 14.57177734 C-15.42783569 13.27954758 -15.42989014 11.98731781 -15.43200684 10.65592957 C-14.6113028 6.0197215 -13.14810133 4.41893459 -9.81054688 1.14526367 C-6.34991986 -0.00827866 -3.65151218 0.01117442 0 0 Z " fill="#D9C257" transform="translate(16.810546875,1.854736328125)"/>
<path d="M0 0 C9.14795535 -0.67762632 16.95996184 2.37621944 24.109375 8.1015625 C29.58368359 13.5984922 33.82503516 20.12658227 34 28 C33.34 28 32.68 28 32 28 C32 30.31 32 32.62 32 35 C31.67 35 31.34 35 31 35 C30.79375 33.741875 30.5875 32.48375 30.375 31.1875 C28.45097198 22.71643218 24.56913267 15.09153995 17.21875 10.21484375 C11.93803745 7.32346769 7.07182136 5 1 5 C0.67 3.35 0.34 1.7 0 0 Z " fill="#2D2512" transform="translate(49,9)"/>
<path d="M0 0 C0.66 0 1.32 0 2 0 C2 27.39 2 54.78 2 83 C-1.96 83 -5.92 83 -10 83 C-10 82.34 -10 81.68 -10 81 C-8.2421875 80.08854167 -6.484375 79.17708333 -4.7265625 78.265625 C-2.52702341 76.65329318 -1.98458314 75.55652275 -1 73 C-0.67165983 69.64349168 -0.67165983 69.64349168 -0.68115234 65.84472656 C-0.67110672 65.13213181 -0.6610611 64.41953705 -0.65071106 63.68534851 C-0.61989535 61.33711531 -0.60284865 58.98899605 -0.5859375 56.640625 C-0.56722453 55.00965394 -0.54765102 53.37869255 -0.5272522 51.7477417 C-0.47593853 47.46032411 -0.43630876 43.17287513 -0.39910889 38.88531494 C-0.35906442 34.50809978 -0.3079741 30.13101509 -0.2578125 25.75390625 C-0.16106228 17.16935998 -0.07665466 8.58474911 0 0 Z " fill="#383431" transform="translate(90,9)"/>
<path d="M0 0 C27.39 0 54.78 0 83 0 C83 2.97 83 5.94 83 9 C82.01 9.33 81.02 9.66 80 10 C79.690625 9.1028125 79.690625 9.1028125 79.375 8.1875 C77.42599532 5.08681073 75.36651282 4.38898113 72 3 C68.48961888 2.53306385 68.48961888 2.53306385 64.70947266 2.56762695 C64.00633942 2.5574353 63.30320618 2.54724365 62.57876587 2.53674316 C60.27378228 2.50674805 57.96921516 2.49736832 55.6640625 2.48828125 C54.05836623 2.47142448 52.45268307 2.4532729 50.84701538 2.43388367 C46.63523457 2.38648559 42.42350695 2.35661054 38.21154785 2.33044434 C33.90785215 2.30058718 29.60433954 2.25407462 25.30078125 2.20898438 C16.86727767 2.12306731 8.43375723 2.05567073 0 2 C0 1.34 0 0.68 0 0 Z " fill="#050100" transform="translate(9,0)"/>
<path d="M0 0 C2.71224618 1.61268692 5.37352812 3.24901874 8 5 C11.17583127 5.33054405 11.17583127 5.33054405 14.8581543 5.31884766 C15.89756668 5.33391609 15.89756668 5.33391609 16.95797729 5.34928894 C19.24671607 5.3801616 21.53533765 5.39716711 23.82421875 5.4140625 C25.41177888 5.4327709 26.99932904 5.45234407 28.58686829 5.4727478 C32.76415123 5.52410983 36.94146643 5.56371366 41.11889648 5.60089111 C45.38208013 5.64090531 49.64512914 5.69200942 53.90820312 5.7421875 C62.2720435 5.83899496 70.63595041 5.92338421 79 6 C79 6.66 79 7.32 79 8 C52.6 8 26.2 8 -1 8 C-1 2 -1 2 0 0 Z " fill="#1D1300" transform="translate(1,84)"/>
<path d="M0 0 C2.78693856 4.72733264 2.01674225 9.55923638 1.625 14.8125 C1.56828125 15.69615234 1.5115625 16.57980469 1.453125 17.49023438 C1.31232863 19.6608451 1.1575466 21.83054071 1 24 C0.34 24.33 -0.32 24.66 -1 25 C-0.67 20.05 -0.34 15.1 0 10 C-3.49043276 9.12739181 -5.51968221 8.99120159 -9 9.1875 C-13.65478608 9.26302013 -13.65478608 9.26302013 -16.625 7 C-17.07875 6.34 -17.5325 5.68 -18 5 C-17.67 4.34 -17.34 3.68 -17 3 C-16.46375 3.2475 -15.9275 3.495 -15.375 3.75 C-11.72190506 4.13453631 -9.88779048 2.08903992 -7 0 C-3.87822605 -1.04059132 -2.92916561 -1.32284898 0 0 Z " fill="#DBC55C" transform="translate(42,15)"/>
<path d="M0 0 C0.66 0 1.32 0 2 0 C2.63551712 4.23678082 1.91746138 6.60248672 -0.5 10 C-4.42670467 14.83643766 -8.93363605 19.10564385 -15 20.875 C-15.66 20.91625 -16.32 20.9575 -17 21 C-17.99 19.68 -18.98 18.36 -20 17 C-19.35933594 16.63648437 -18.71867187 16.27296875 -18.05859375 15.8984375 C-10.60575691 11.56668434 -4.27408926 7.64837026 0 0 Z " fill="#2E2510" transform="translate(80,64)"/>
<path d="M0 0 C0.33 0.66 0.66 1.32 1 2 C0.78214844 2.61230469 0.56429687 3.22460938 0.33984375 3.85546875 C-0.26794293 6.12793937 -0.26794293 6.12793937 1.44140625 8.17578125 C5.51889574 12.57971942 5.51889574 12.57971942 11 14.25 C16.60073834 11.91635902 21.85014091 9.21866193 27 6 C25.33015182 11.00954455 20.48464071 12.59947913 16 15 C10.6200931 17.51825429 4.85297642 17.60121208 -1 17 C-3.3359375 15.984375 -3.3359375 15.984375 -5 15 C-4.56826496 8.84777564 -3.34594658 5.18082051 0 0 Z " fill="#E5C644" transform="translate(44,60)"/>
<path d="M0 0 C4.69904609 2.20135493 8.82439388 4.83390721 12 9 C12.66121872 12.44134289 12.50059502 15.5445038 12 19 C11.34 17.68 10.68 16.36 10 15 C9.01 15.495 9.01 15.495 8 16 C8.33 14.02 8.66 12.04 9 10 C8.01 9.34 7.02 8.68 6 8 C2.96846681 15.64473588 2.3376774 22.814234 2 31 C1.34 31 0.68 31 0 31 C-0.41959816 22.91107987 -0.40139505 16.28625907 3.125 8.890625 C4.14000306 7.04470801 4.14000306 7.04470801 4 5 C3.34 4.67 2.68 4.34 2 4 C2 3.34 2 2.68 2 2 C1.34 2 0.68 2 0 2 C0 1.34 0 0.68 0 0 Z " fill="#E8CE5D" transform="translate(9,21)"/>
<path d="M0 0 C0.33 0 0.66 0 1 0 C1 6.6 1 13.2 1 20 C-2.96 20 -6.92 20 -11 20 C-11 19.34 -11 18.68 -11 18 C-8.36328125 16.6328125 -8.36328125 16.6328125 -5.7265625 15.265625 C-2.94480301 13.22650719 -2.16664273 11.02218992 -1.62109375 7.67578125 C-1.56050781 6.89589844 -1.49992187 6.11601563 -1.4375 5.3125 C-1.09964413 1.09964413 -1.09964413 1.09964413 0 0 Z " fill="#241C12" transform="translate(91,72)"/>
<path d="M0 0 C1.32 1.32 2.64 2.64 4 4 C3.67515625 4.83917969 3.67515625 4.83917969 3.34375 5.6953125 C0.74297746 13.18457417 0.69380773 20.12972454 1 28 C0.34 28 -0.32 28 -1 28 C-2.80204364 24.39591272 -2.51917441 20.22470409 -2.75 16.25 C-2.81832031 15.35539062 -2.88664063 14.46078125 -2.95703125 13.5390625 C-3.26615036 8.16514571 -3.01153378 4.68805774 0 0 Z " fill="#31270E" transform="translate(15,28)"/>
<path d="M0 0 C1.98 0.66 3.96 1.32 6 2 C5.44894091 5.9492568 4.61064629 9.34920174 3 13 C3.66 13.33 4.32 13.66 5 14 C4.67 13.01 4.34 12.02 4 11 C5.65 11 7.3 11 9 11 C7.6062718 15.43458973 5.39417765 17.87378374 2 21 C0 20 0 20 -1.3125 18.3125 C-2 16 -2 16 -0.75 12.9375 C0.44806155 10.92646812 1.70152744 8.94770884 3 7 C2.62068453 3.96547627 1.74959319 2.62438979 0 0 Z " fill="#51482B" transform="translate(71,53)"/>
<path d="M0 0 C0 0.66 0 1.32 0 2 C-1.32 2.33 -2.64 2.66 -4 3 C-3.34 3.66 -2.68 4.32 -2 5 C-3.58074564 5.81752303 -5.16471223 6.62881997 -6.75 7.4375 C-7.63171875 7.88996094 -8.5134375 8.34242187 -9.421875 8.80859375 C-11.64198566 9.83455398 -13.61444619 10.51508603 -16 11 C-16.66 9.68 -17.32 8.36 -18 7 C-15.75474054 5.82333996 -13.50455858 4.6585926 -11.25 3.5 C-10.29867188 2.99919922 -10.29867188 2.99919922 -9.328125 2.48828125 C-5.87989007 0.72824467 -3.95159931 0 0 0 Z " fill="#2F2611" transform="translate(42,9)"/>
<path d="M0 0 C0 0.99 0 1.98 0 3 C-8.20921279 9.37593009 -16.67511262 12.06056245 -27 11 C-29.3359375 9.984375 -29.3359375 9.984375 -31 9 C-30.67 6.36 -30.34 3.72 -30 1 C-29.67 1 -29.34 1 -29 1 C-29 3.31 -29 5.62 -29 8 C-17.04624574 8.71722526 -9.67684845 7.44877048 0 0 Z " fill="#BCA859" transform="translate(70,66)"/>
<path d="M0 0 C3.63 0 7.26 0 11 0 C11 2.97 11 5.94 11 9 C10.01 9.33 9.02 9.66 8 10 C7.814375 9.4225 7.62875 8.845 7.4375 8.25 C5.29448878 4.89572157 2.51177437 3.82092004 -1 2 C-0.67 1.34 -0.34 0.68 0 0 Z " fill="#15120C" transform="translate(81,0)"/>
<path d="M0 0 C0.78052734 -0.01224609 1.56105469 -0.02449219 2.36523438 -0.03710938 C4.39070035 -0.04235217 6.41572552 0.06515672 8.4375 0.1875 C9.0975 0.8475 9.7575 1.5075 10.4375 2.1875 C8.55804688 2.15269531 8.55804688 2.15269531 6.640625 2.1171875 C4.9895893 2.09842573 3.33854715 2.08022597 1.6875 2.0625 C0.8625 2.04574219 0.0375 2.02898438 -0.8125 2.01171875 C-1.61171875 2.00527344 -2.4109375 1.99882813 -3.234375 1.9921875 C-4.33410645 1.97647705 -4.33410645 1.97647705 -5.45605469 1.96044922 C-7.92013839 2.22604934 -9.46680989 2.87477218 -11.5625 4.1875 C-13.31572937 6.71938648 -13.31572937 6.71938648 -14.5625 9.1875 C-14.8925 8.5275 -15.2225 7.8675 -15.5625 7.1875 C-15.2325 6.5275 -14.9025 5.8675 -14.5625 5.1875 C-17.8610139 5.91018235 -17.8610139 5.91018235 -19.25 9.25 C-19.683125 10.219375 -20.11625 11.18875 -20.5625 12.1875 C-21.5625 9.1875 -21.5625 9.1875 -20.5625 6.125 C-17.96826291 2.31471427 -15.992569 2.05769213 -11.5625 1.1875 C-7.6986104 -0.1004632 -4.02572278 0.00334085 0 0 Z " fill="#988D68" transform="translate(60.5625,50.8125)"/>
<path d="M0 0 C1.2375 0.4125 2.475 0.825 3.75 1.25 C1.98612322 3.01387678 0.18868721 4.67033184 -1.6875 6.3125 C-2.28433594 6.83972656 -2.88117187 7.36695313 -3.49609375 7.91015625 C-5.25 9.25 -5.25 9.25 -8.25 10.25 C-8.54240392 6.44874907 -8.70319264 4.02420409 -6.75 0.6875 C-3.80831032 -1.00397157 -3.17793107 -0.78321351 0 0 Z " fill="#E3CB5F" transform="translate(11.25,3.75)"/>
<path d="M0 0 C1.52730096 6.10920385 1.35749836 11.85093565 0 18 C-2.24339573 21.53547808 -4.83459906 24.27443837 -8 27 C-8.66 26.67 -9.32 26.34 -10 26 C-9.27683594 25.27296875 -9.27683594 25.27296875 -8.5390625 24.53125 C-4.07935095 19.79849488 -2.03372751 16.4320823 -1 10 C-1.66 10 -2.32 10 -3 10 C-2.01 6.7 -1.02 3.4 0 0 Z " fill="#D7BD4E" transform="translate(83,54)"/>
<path d="M0 0 C0.33 0 0.66 0 1 0 C1.33 6.27 1.66 12.54 2 19 C1.34 19 0.68 19 0 19 C-1.58696844 15.82606311 -1.1431447 12.41825795 -1.125 8.9375 C-1.12886719 8.19177734 -1.13273438 7.44605469 -1.13671875 6.67773438 C-1.12663501 1.12663501 -1.12663501 1.12663501 0 0 Z " fill="#231E1D" transform="translate(14,37)"/>
<path d="M0 0 C0.99 0 1.98 0 3 0 C1 5 -1 10 -3 15 C-3.33 15 -3.66 15 -4 15 C-4.45356243 8.53673535 -3.59378942 5.39068413 0 0 Z " fill="#2B210B" transform="translate(43,56)"/>
<path d="M0 0 C2.97 0.495 2.97 0.495 6 1 C5.34 2.32 4.68 3.64 4 5 C2.56208484 4.85831863 1.1246763 4.71148957 -0.3125 4.5625 C-1.11300781 4.48128906 -1.91351563 4.40007813 -2.73828125 4.31640625 C-5 4 -5 4 -8 3 C-7.67 2.34 -7.34 1.68 -7 1 C-4.69 1.33 -2.38 1.66 0 2 C0 1.34 0 0.68 0 0 Z " fill="#5F5535" transform="translate(67,45)"/>
<path d="M0 0 C2 2 2 2 2.9375 4.0625 C3.90403542 6.34565884 3.90403542 6.34565884 7 7 C7 7.33 7 7.66 7 8 C4.36 8 1.72 8 -1 8 C-1.125 2.25 -1.125 2.25 0 0 Z " fill="#0C0A0A" transform="translate(1,84)"/>
<path d="M0 0 C2 2 2 2 2.23046875 4.34765625 C2.20919922 5.69150391 2.20919922 5.69150391 2.1875 7.0625 C2.17783203 8.41021484 2.17783203 8.41021484 2.16796875 9.78515625 C2 12 2 12 1 13 C-0.51928038 13.07179964 -2.04167482 13.08392007 -3.5625 13.0625 C-4.38878906 13.05347656 -5.21507813 13.04445313 -6.06640625 13.03515625 C-6.70449219 13.02355469 -7.34257813 13.01195312 -8 13 C-8 12.67 -8 12.34 -8 12 C-5.36 11.67 -2.72 11.34 0 11 C0 7.37 0 3.74 0 0 Z " fill="#DBC359" transform="translate(77,33)"/>
<path d="M0 0 C0.804375 0.8971875 0.804375 0.8971875 1.625 1.8125 C3.94697914 4.15383264 3.94697914 4.15383264 7.125 5.5625 C10 7 10 7 12 10 C11.01 10 10.02 10 9 10 C8.34 9.34 7.68 8.68 7 8 C6.195625 7.690625 5.39125 7.38125 4.5625 7.0625 C2.02934779 6.0121686 0.76854204 5.04778552 -1 3 C-0.67 2.01 -0.34 1.02 0 0 Z " fill="#3F3414" transform="translate(4,14)"/>
<path d="M0 0 C2.97 0 5.94 0 9 0 C8.21625 0.598125 7.4325 1.19625 6.625 1.8125 C3.85425677 3.91085249 3.85425677 3.91085249 2 7 C1.34 7 0.68 7 0 7 C0 4.69 0 2.38 0 0 Z " fill="#504E4B" transform="translate(0,0)"/>
<path d="M0 0 C-0.375 2.4375 -0.375 2.4375 -1 5 C-1.99 5.495 -1.99 5.495 -3 6 C-2.67 4.68 -2.34 3.36 -2 2 C-5.2985139 2.72268235 -5.2985139 2.72268235 -6.6875 6.0625 C-7.120625 7.031875 -7.55375 8.00125 -8 9 C-9 6 -9 6 -7.75 2.875 C-5.41868364 -0.95501974 -4.25577109 -1.41859036 0 0 Z " fill="#756949" transform="translate(48,54)"/>
<path d="M0 0 C3 1.375 3 1.375 6 4 C6.5412406 7.3854069 6.35042185 10.59961015 6 14 C5.34 12.68 4.68 11.36 4 10 C3.01 10.495 3.01 10.495 2 11 C2.226875 10.071875 2.45375 9.14375 2.6875 8.1875 C2.790625 7.135625 2.89375 6.08375 3 5 C1.64555699 3.22809091 1.64555699 3.22809091 0 2 C0 1.34 0 0.68 0 0 Z " fill="#C0AD60" transform="translate(15,26)"/>
<path d="M0 0 C1.98 0.66 3.96 1.32 6 2 C5.62671065 7.35048061 4.0042343 9.50912907 0 13 C0.309375 12.443125 0.61875 11.88625 0.9375 11.3125 C2.1040584 8.77351995 2.79048458 6.79353894 3 4 C1.66846734 1.69495956 1.66846734 1.69495956 0 0 Z " fill="#C0AD68" transform="translate(71,53)"/>
<path d="M0 0 C4.50534863 2.19179122 6.16250657 4.35791133 8 9 C8 9.99 8 10.98 8 12 C4.13892543 9.42595029 4.05680308 7.38979741 3 3 C1.68 2.67 0.36 2.34 -1 2 C-0.67 1.34 -0.34 0.68 0 0 Z " fill="#3F3517" transform="translate(12,6)"/>
<path d="M0 0 C2.125 0.375 2.125 0.375 4 1 C2.8553125 1.8971875 2.8553125 1.8971875 1.6875 2.8125 C-0.91335259 4.84004112 -0.91335259 4.84004112 -2.6875 6.75 C-4 8 -4 8 -6 8 C-6 7.34 -6 6.68 -6 6 C-5.34 6 -4.68 6 -4 6 C-3.71125 5.38125 -3.4225 4.7625 -3.125 4.125 C-2 2 -2 2 0 0 Z " fill="#1E1906" transform="translate(6,1)"/>
<path d="M0 0 C2.64 0.66 5.28 1.32 8 2 C8 2.66 8 3.32 8 4 C5.69 4 3.38 4 1 4 C0.67 2.68 0.34 1.36 0 0 Z " fill="#2F260A" transform="translate(59,43)"/>
<path d="M0 0 C2.64 0.66 5.28 1.32 8 2 C6 4 6 4 3 5 C2.67 4.01 2.34 3.02 2 2 C0.35 2.66 -1.3 3.32 -3 4 C-2.01 2.68 -1.02 1.36 0 0 Z " fill="#D8C260" transform="translate(7,3)"/>
<path d="M0 0 C0.33 0 0.66 0 1 0 C1.33 2.97 1.66 5.94 2 9 C1.34 8.67 0.68 8.34 0 8 C0 7.34 0 6.68 0 6 C-0.66 6 -1.32 6 -2 6 C-1.125 1.125 -1.125 1.125 0 0 Z " fill="#EACF59" transform="translate(19,35)"/>
<path d="M0 0 C0.66 0.33 1.32 0.66 2 1 C-0.31 2.65 -2.62 4.3 -5 6 C-5.99 5.01 -6.98 4.02 -8 3 C-7.67 2.34 -7.34 1.68 -7 1 C-6.401875 1.20625 -5.80375 1.4125 -5.1875 1.625 C-2.71549154 2.30671915 -2.71549154 2.30671915 0 0 Z " fill="#DCC66A" transform="translate(32,17)"/>
<path d="M0 0 C0.33 0.66 0.66 1.32 1 2 C3.02463255 2.65213292 3.02463255 2.65213292 5 3 C4.34 3.66 3.68 4.32 3 5 C0.9375 4.8125 0.9375 4.8125 -1 4 C-1.33 3.01 -1.66 2.02 -2 1 C-1.34 0.67 -0.68 0.34 0 0 Z " fill="#3C3111" transform="translate(26,15)"/>
<path d="M0 0 C2.64 1.65 5.28 3.3 8 5 C7.01 5.66 6.02 6.32 5 7 C4.01 6.34 3.02 5.68 2 5 C2 4.34 2 3.68 2 3 C1.01 2.67 0.02 2.34 -1 2 C-0.67 1.34 -0.34 0.68 0 0 Z " fill="#241B05" transform="translate(3,85)"/>
<path d="M0 0 C0 1.98 0 3.96 0 6 C-0.99 5.67 -1.98 5.34 -3 5 C-3.99 5 -4.98 5 -6 5 C-1.125 0 -1.125 0 0 0 Z " fill="#746A49" transform="translate(92,85)"/>
<path d="M0 0 C0.78375 0.04125 1.5675 0.0825 2.375 0.125 C2.375 0.785 2.375 1.445 2.375 2.125 C3.365 2.455 4.355 2.785 5.375 3.125 C2.82797384 4.39851308 1.9467055 3.92691925 -0.75 3.1875 C-1.47445312 2.99285156 -2.19890625 2.79820313 -2.9453125 2.59765625 C-3.49960937 2.44167969 -4.05390625 2.28570312 -4.625 2.125 C-2.625 0.125 -2.625 0.125 0 0 Z " fill="#CFB961" transform="translate(56.625,6.875)"/>
<path d="M0 0 C0.99 0.33 1.98 0.66 3 1 C1.515 4.96 1.515 4.96 0 9 C-0.33 9 -0.66 9 -1 9 C-1.09765625 2.84765625 -1.09765625 2.84765625 -1 1 C-0.67 0.67 -0.34 0.34 0 0 Z " fill="#312605" transform="translate(40,62)"/>
<path d="M0 0 C1.65 1.65 3.3 3.3 5 5 C3.68 5 2.36 5 1 5 C0.34 3.68 -0.32 2.36 -1 1 C-0.67 0.67 -0.34 0.34 0 0 Z " fill="#978439" transform="translate(53,36)"/>
</svg>
