<?xml version="1.0" encoding="UTF-8"?>
<svg version="1.1" xmlns="http://www.w3.org/2000/svg" width="168" height="168">
<path d="M0 0 C1.27228455 -0.01007584 2.54456909 -0.02015167 3.85540771 -0.03053284 C7.33499535 -0.05695783 10.81436144 -0.0640632 14.29403973 -0.0659802 C16.47213458 -0.0681176 18.65017372 -0.07453173 20.8282547 -0.08247185 C28.4389247 -0.11020355 36.04943741 -0.12248049 43.66015625 -0.12011719 C50.73470537 -0.11831682 57.80856676 -0.14993912 64.88294196 -0.19734818 C70.97237338 -0.23669025 77.06158114 -0.25266402 83.15113854 -0.25075096 C86.78119886 -0.24998917 90.41064796 -0.25836352 94.04058075 -0.29028511 C98.09523312 -0.32496977 102.14836424 -0.31101935 106.203125 -0.29296875 C107.39204346 -0.30982727 108.58096191 -0.32668579 109.8059082 -0.34405518 C117.70119943 -0.25501134 123.1800977 1.40677444 129.36035156 6.43579102 C133.71708414 11.18737954 135.47616937 15.46278054 135.52098083 21.8611145 C135.53604927 23.55165703 135.53604927 23.55165703 135.55142212 25.27635193 C135.55725311 26.5137764 135.56308411 27.75120087 135.5690918 29.02612305 C135.57887558 30.32883652 135.58865936 31.63154999 135.59873962 32.97373962 C135.63010827 37.29699737 135.65039324 41.62027423 135.66894531 45.94360352 C135.67224263 46.679918 135.67553996 47.41623248 135.6789372 48.17485952 C135.70972327 55.12366152 135.73642194 62.07246795 135.75335598 69.02131844 C135.7752434 77.89773084 135.81717395 86.77353691 135.88679355 95.64970696 C135.93412195 101.89698666 135.95830144 108.14410331 135.96555287 114.39155662 C135.97049691 118.11948647 135.98545611 121.84673273 136.02529716 125.57446671 C136.06922683 129.73971115 136.06524722 133.90362293 136.05737305 138.0690918 C136.08737396 139.90701042 136.08737396 139.90701042 136.11798096 141.78205872 C136.05158275 149.6181166 134.59677933 154.52321143 129.36035156 160.43579102 C124.64712811 164.91910113 120.25579158 166.67665843 113.7771759 166.7166748 C112.10991959 166.73380524 112.10991959 166.73380524 110.40898132 166.75128174 C109.19901993 166.75351746 107.98905853 166.75575317 106.74243164 166.75805664 C105.46053955 166.76798645 104.17864746 166.77791626 102.85791016 166.78814697 C99.34731815 166.8143201 95.83680252 166.82727056 92.32612824 166.83616829 C90.12912306 166.84204305 87.93213844 166.85025521 85.73514366 166.85917664 C78.8505707 166.88650939 71.96604511 166.90584997 65.08142167 166.91358042 C57.15407028 166.92253237 49.22741022 166.95759045 41.30026895 167.01558161 C35.15992112 167.05893018 29.01976696 167.0789951 22.87926787 167.08166265 C19.21786886 167.08375101 15.55712044 167.09539649 11.89588356 167.13130188 C7.80524962 167.17063918 3.71604694 167.16164116 -0.37475586 167.14868164 C-1.5745961 167.16711121 -2.77443634 167.18554077 -4.01063538 167.20452881 C-11.90980065 167.12636334 -17.64473688 165.78431089 -23.63964844 160.43579102 C-29.9347487 153.36923393 -30.50133368 146.36960503 -30.38427734 137.21850586 C-30.39157867 135.93267105 -30.39888 134.64683624 -30.40640259 133.32203674 C-30.42506974 129.82386171 -30.40650332 126.32682064 -30.37973833 122.82873487 C-30.35695032 119.15296431 -30.36533627 115.47724313 -30.36923218 111.80142212 C-30.37099273 105.63313472 -30.34894676 99.46528918 -30.31201172 93.29711914 C-30.2696463 86.18165358 -30.26266758 79.06683378 -30.27513564 71.9512676 C-30.28655134 65.08263587 -30.27520086 58.21422982 -30.25278854 51.34563065 C-30.24353775 48.43272319 -30.24173077 45.51995468 -30.24596024 42.60703659 C-30.25045065 38.53578023 -30.22141711 34.46541654 -30.18896484 30.39428711 C-30.19391968 29.19511154 -30.19887451 27.99593597 -30.20397949 26.76042175 C-30.10550849 19.00742273 -29.13297719 13.49538995 -23.92871094 7.44750977 C-23.37957031 7.01051758 -22.83042969 6.57352539 -22.26464844 6.12329102 C-21.72066406 5.6734082 -21.17667969 5.22352539 -20.61621094 4.76000977 C-13.69613039 0.12382932 -8.15396459 -0.00926119 0 0 Z " fill="#F0D042" transform="translate(30.6396484375,0.564208984375)"/>
<path d="M0 0 C12.80660099 12.49271371 20.2616428 28.08594548 20.74023438 45.99755859 C20.90120227 63.57091883 16.87565386 79.54999662 5.390625 93.33203125 C4.730625 93.33203125 4.070625 93.33203125 3.390625 93.33203125 C3.17921875 93.89148438 2.9678125 94.4509375 2.75 95.02734375 C0.92674562 98.11849342 -1.55059111 100.05867665 -4.359375 102.20703125 C-4.92922119 102.64466797 -5.49906738 103.08230469 -6.08618164 103.53320312 C-20.4649837 114.13862216 -37.89554574 117.9007121 -55.50390625 116.0234375 C-72.89378752 113.21219775 -89.00043339 104.69106798 -99.89746094 90.67529297 C-107.46915361 79.96081195 -112.56981227 67.45032286 -113.609375 54.33203125 C-113.66351563 53.69007812 -113.71765625 53.048125 -113.7734375 52.38671875 C-114.24093753 41.20921806 -111.3707096 29.3864231 -106.609375 19.33203125 C-103.609375 19.33203125 -103.609375 19.33203125 -102.22265625 20.64453125 C-101.01822917 22.20703125 -99.81380208 23.76953125 -98.609375 25.33203125 C-98.88652344 25.99589844 -99.16367188 26.65976562 -99.44921875 27.34375 C-99.81144531 28.22675781 -100.17367187 29.10976563 -100.546875 30.01953125 C-100.90652344 30.88964844 -101.26617187 31.75976562 -101.63671875 32.65625 C-106.12526036 45.004246 -104.4994984 60.40699349 -99.609375 72.33203125 C-94.36742644 83.33679764 -94.36742644 83.33679764 -85.609375 91.33203125 C-85.609375 91.99203125 -85.609375 92.65203125 -85.609375 93.33203125 C-82.639375 93.66203125 -79.669375 93.99203125 -76.609375 94.33203125 C-76.155625 93.50703125 -75.701875 92.68203125 -75.234375 91.83203125 C-74.698125 91.00703125 -74.161875 90.18203125 -73.609375 89.33203125 C-72.949375 89.33203125 -72.289375 89.33203125 -71.609375 89.33203125 C-71.36316406 88.57921875 -71.11695313 87.82640625 -70.86328125 87.05078125 C-69.84013571 84.01640569 -68.77858307 81.00278787 -67.69921875 77.98828125 C-64.15152324 67.91740367 -60.96874311 58.85108889 -60.8125 48.109375 C-60.55472726 44.58482851 -59.46661137 42.20244704 -57.546875 39.2734375 C-54.50821632 32.98088182 -55.14297114 24.41062483 -54.796875 17.58203125 C-54.72017578 16.46570312 -54.64347656 15.349375 -54.56445312 14.19921875 C-54.18651048 6.38536849 -55.37310777 0.45522482 -58.609375 -6.66796875 C-67.75510441 -5.16866885 -75.30965427 -1.36821687 -82.609375 4.33203125 C-86.00999514 2.92487809 -87.50167198 1.30334897 -89.609375 -1.66796875 C-63.49596537 -24.47502935 -25.55524289 -22.45647841 0 0 Z " fill="#2C251F" transform="translate(133.609375,32.66796875)"/>
<path d="M0 0 C12.80660099 12.49271371 20.2616428 28.08594548 20.74023438 45.99755859 C20.90120227 63.57091883 16.87565386 79.54999662 5.390625 93.33203125 C4.730625 93.33203125 4.070625 93.33203125 3.390625 93.33203125 C3.17921875 93.89148438 2.9678125 94.4509375 2.75 95.02734375 C0.92674562 98.11849342 -1.55059111 100.05867665 -4.359375 102.20703125 C-4.92922119 102.64466797 -5.49906738 103.08230469 -6.08618164 103.53320312 C-20.4649837 114.13862216 -37.89554574 117.9007121 -55.50390625 116.0234375 C-72.89378752 113.21219775 -89.00043339 104.69106798 -99.89746094 90.67529297 C-107.46915361 79.96081195 -112.56981227 67.45032286 -113.609375 54.33203125 C-113.66351563 53.69007812 -113.71765625 53.048125 -113.7734375 52.38671875 C-114.24093753 41.20921806 -111.3707096 29.3864231 -106.609375 19.33203125 C-103.609375 19.33203125 -103.609375 19.33203125 -102.22265625 20.64453125 C-101.01822917 22.20703125 -99.81380208 23.76953125 -98.609375 25.33203125 C-98.88652344 25.99589844 -99.16367188 26.65976562 -99.44921875 27.34375 C-99.81144531 28.22675781 -100.17367187 29.10976563 -100.546875 30.01953125 C-100.90652344 30.88964844 -101.26617187 31.75976562 -101.63671875 32.65625 C-106.12526036 45.004246 -104.4994984 60.40699349 -99.609375 72.33203125 C-94.36742644 83.33679764 -94.36742644 83.33679764 -85.609375 91.33203125 C-85.609375 91.99203125 -85.609375 92.65203125 -85.609375 93.33203125 C-82.639375 93.66203125 -79.669375 93.99203125 -76.609375 94.33203125 C-76.155625 93.50703125 -75.701875 92.68203125 -75.234375 91.83203125 C-74.698125 91.00703125 -74.161875 90.18203125 -73.609375 89.33203125 C-72.949375 89.33203125 -72.289375 89.33203125 -71.609375 89.33203125 C-71.361875 88.56890625 -71.114375 87.80578125 -70.859375 87.01953125 C-69.18973548 82.09409467 -67.39916796 77.21486447 -65.609375 72.33203125 C-64.619375 72.66203125 -63.629375 72.99203125 -62.609375 73.33203125 C-62.939375 73.66203125 -63.269375 73.99203125 -63.609375 74.33203125 C-62.619375 74.82703125 -62.619375 74.82703125 -61.609375 75.33203125 C-61.320625 74.19765625 -61.031875 73.06328125 -60.734375 71.89453125 C-60.363125 70.71890625 -59.991875 69.54328125 -59.609375 68.33203125 C-58.949375 68.00203125 -58.289375 67.67203125 -57.609375 67.33203125 C-59.43158876 73.94445847 -61.66161104 80.13723796 -64.609375 86.33203125 C-63.09987675 84.822533 -62.44946086 83.00601666 -61.54296875 81.078125 C-61.14013672 80.22412109 -60.73730469 79.37011719 -60.32226562 78.49023438 C-59.69094727 77.14348633 -59.69094727 77.14348633 -59.046875 75.76953125 C-58.62212891 74.86783203 -58.19738281 73.96613281 -57.75976562 73.03710938 C-56.70771454 70.80297841 -55.65767648 68.56792345 -54.609375 66.33203125 C-53.949375 66.33203125 -53.289375 66.33203125 -52.609375 66.33203125 C-52.279375 67.65203125 -51.949375 68.97203125 -51.609375 70.33203125 C-50.949375 70.33203125 -50.289375 70.33203125 -49.609375 70.33203125 C-50.93956436 75.01206922 -52.88499279 78.36666708 -55.671875 82.33203125 C-60.01826283 88.90953909 -61.34038341 95.39062167 -60.609375 103.33203125 C-56.57280468 107.36860157 -50.86955856 106.56485612 -45.484375 106.58203125 C-38.37035017 106.5666806 -32.181038 106.29449521 -25.609375 103.33203125 C-24.46726562 102.8215625 -23.32515625 102.31109375 -22.1484375 101.78515625 C-9.60619262 95.95259117 -0.6605663 88.21482543 5.453125 75.45703125 C6.46952315 72.44258107 6.46952315 72.44258107 6.640625 69.64453125 C4.31914254 65.3497887 -0.84250618 64.16056411 -5.33374023 62.81567383 C-8.3336587 62.17809862 -11.28347248 61.99820905 -14.34375 61.796875 C-15.63925781 61.70986328 -16.93476562 61.62285156 -18.26953125 61.53320312 C-19.63280743 61.44523397 -20.99608875 61.35734435 -22.359375 61.26953125 C-23.73830334 61.17806676 -25.11720991 61.0862735 -26.49609375 60.99414062 C-29.86698726 60.77020015 -33.23806696 60.54962695 -36.609375 60.33203125 C-36.279375 59.67203125 -35.949375 59.01203125 -35.609375 58.33203125 C-34.77913818 58.3477417 -34.77913818 58.3477417 -33.93212891 58.36376953 C-19.64509658 58.68039978 -19.64509658 58.68039978 -5.609375 56.33203125 C-10.229375 55.34203125 -14.849375 54.35203125 -19.609375 53.33203125 C-19.609375 53.00203125 -19.609375 52.67203125 -19.609375 52.33203125 C-17.629375 52.33203125 -15.649375 52.33203125 -13.609375 52.33203125 C-13.609375 51.67203125 -13.609375 51.01203125 -13.609375 50.33203125 C-14.269375 50.00203125 -14.929375 49.67203125 -15.609375 49.33203125 C-7.11862418 50.20145454 -7.11862418 50.20145454 -4.171875 50.95703125 C0.45699583 51.63442698 6.16107435 51.44680657 10.390625 49.33203125 C11.51096857 34.34432397 7.05952008 22.71783293 -2.609375 11.33203125 C-3.22683594 10.60242188 -3.84429687 9.8728125 -4.48046875 9.12109375 C-14.34473663 -1.58399531 -26.53735184 -5.90896586 -40.609375 -7.66796875 C-41.269375 -0.40796875 -41.929375 6.85203125 -42.609375 14.33203125 C-43.599375 12.35203125 -43.599375 12.35203125 -44.609375 10.33203125 C-44.609375 16.27203125 -44.609375 22.21203125 -44.609375 28.33203125 C-47.07058933 23.40960258 -47.1783775 19.79133292 -47.609375 14.33203125 C-47.939375 18.95203125 -48.269375 23.57203125 -48.609375 28.33203125 C-50.96295751 25.97844874 -50.88809404 25.40234731 -51.0234375 22.19921875 C-51.08144531 20.99072266 -51.08144531 20.99072266 -51.140625 19.7578125 C-51.1715625 18.91605469 -51.2025 18.07429688 -51.234375 17.20703125 C-51.29238281 15.93279297 -51.29238281 15.93279297 -51.3515625 14.6328125 C-51.44593994 12.53291441 -51.52875086 10.43250234 -51.609375 8.33203125 C-51.939375 10.64203125 -52.269375 12.95203125 -52.609375 15.33203125 C-52.939375 15.33203125 -53.269375 15.33203125 -53.609375 15.33203125 C-53.63515625 14.66558594 -53.6609375 13.99914062 -53.6875 13.3125 C-54.13334098 6.06758415 -55.82836032 0.01940144 -58.609375 -6.66796875 C-67.75510441 -5.16866885 -75.30965427 -1.36821687 -82.609375 4.33203125 C-86.00999514 2.92487809 -87.50167198 1.30334897 -89.609375 -1.66796875 C-63.49596537 -24.47502935 -25.55524289 -22.45647841 0 0 Z " fill="#251E18" transform="translate(133.609375,32.66796875)"/>
<path d="M0 0 C3.10442031 1.3904499 5.3656443 3.01571598 7.8125 5.375 C8.43769531 5.96023437 9.06289063 6.54546875 9.70703125 7.1484375 C10.13371094 7.75945313 10.56039062 8.37046875 11 9 C10.77344727 9.59989746 10.54689453 10.19979492 10.31347656 10.81787109 C10.15830566 11.8980249 10.15830566 11.8980249 10 13 C11.73582992 15.43156203 11.73582992 15.43156203 14.27734375 17.765625 C15.18291016 18.65507812 16.08847656 19.54453125 17.02148438 20.4609375 C17.99322643 21.39090005 18.96523516 22.32058402 19.9375 23.25 C20.90672943 24.19415339 21.87484357 25.13945315 22.84179688 26.0859375 C25.21710839 28.40216166 27.60327729 30.7059714 30 33 C31.07636719 32.67773438 32.15273438 32.35546875 33.26171875 32.0234375 C41.73432496 29.70387342 47.22797205 31.43251176 55 35 C55.64624102 54.92576465 55.64624102 54.92576465 51.484375 62.90625 C49.72623352 66.57058698 49.41706681 69.58532875 49.0625 73.625 C48.33611494 80.8120375 46.63406265 87.24861613 44 94 C41.15805134 92.71001845 39.12188057 91.36362413 36.94140625 89.13671875 C36.39033203 88.57919922 35.83925781 88.02167969 35.27148438 87.44726562 C34.42553711 86.57618164 34.42553711 86.57618164 33.5625 85.6875 C33.00240234 85.11837891 32.44230469 84.54925781 31.86523438 83.96289062 C30.76083297 82.84044765 29.65848978 81.71597532 28.55834961 80.58935547 C27.12552684 79.1280244 25.6767702 77.68236131 24.2265625 76.23828125 C19.48229877 71.46904771 16.268388 67.44562829 15.734375 60.58984375 C15.73953125 59.38457031 15.7446875 58.17929688 15.75 56.9375 C15.74226563 55.12572266 15.74226563 55.12572266 15.734375 53.27734375 C15.98122251 50.2316811 16.39744025 48.550105 18 46 C17.42185547 45.75145264 16.84371094 45.50290527 16.24804688 45.24682617 C13.67201689 43.8180919 12.04740112 42.19501554 10.03125 40.05078125 C9.29519531 39.28572266 8.55914063 38.52066406 7.80078125 37.73242188 C6.26106512 36.11297511 4.72723569 34.48791194 3.19921875 32.85742188 C2.46316406 32.09623047 1.72710938 31.33503906 0.96875 30.55078125 C0.30294922 29.84606689 -0.36285156 29.14135254 -1.04882812 28.4152832 C-1.69271484 27.94823975 -2.33660156 27.48119629 -3 27 C-5.07580374 27.36816657 -5.07580374 27.36816657 -7 28 C-9.578125 25.91015625 -9.578125 25.91015625 -12.25 23.0625 C-13.14203125 22.12535156 -14.0340625 21.18820313 -14.953125 20.22265625 C-15.62859375 19.48917969 -16.3040625 18.75570313 -17 18 C-11.72898586 11.58930713 -5.90871848 5.81409488 0 0 Z " fill="#231D1C" transform="translate(22,11)"/>
<path d="M0 0 C11.64979543 -0.89613811 21.89820323 4.03352212 31 11 C42.13320059 20.56606385 50.90665959 32.61932029 52.34375 47.578125 C52.5112242 53.9142323 52.5112242 53.9142323 52 57 C46.99975456 60.33349696 41.90992656 60.33771009 36 60 C32.75738756 59.33445847 29.64285729 58.4088641 26.5 57.375 C25.73486084 57.1275 24.96972168 56.88 24.18139648 56.625 C19.35426816 54.90357456 16.45394763 52.90632308 13 49 C11.74347467 47.87957799 10.47457995 46.77268505 9.1875 45.6875 C8.28064453 44.91986328 8.28064453 44.91986328 7.35546875 44.13671875 C6.90816406 43.76160156 6.46085937 43.38648438 6 43 C6.63921965 45.47627099 6.63921965 45.47627099 8 48 C10.50447516 49.21869929 10.50447516 49.21869929 13 50 C13.33 50.66 13.66 51.32 14 52 C10.21421838 51.7358757 8.28683916 51.22164845 5.25 48.875 C0.77744938 43.1600742 0.36172331 35.70028349 -0.625 28.6875 C-0.7590625 27.80126953 -0.893125 26.91503906 -1.03125 26.00195312 C-2.32641348 16.94241675 -2.61338263 8.82016639 0 0 Z " fill="#F1D34A" transform="translate(93,25)"/>
<path d="M0 0 C1.11169556 0.02404907 1.11169556 0.02404907 2.24584961 0.04858398 C3.76420695 0.08644137 5.28239404 0.13190768 6.80029297 0.18505859 C8.84651606 0.24546873 10.89430066 0.24436779 12.94140625 0.23828125 C18.98420073 0.36213572 23.03490346 0.61013358 27.6875 4.6875 C28.79906597 5.86807671 29.90417127 7.05480141 31 8.25 C31.99 8.91 32.98 9.57 34 10.25 C31.79877486 19.78864225 23.72237913 27.67901682 16 33.25 C0.22331031 42.62575605 0.22331031 42.62575605 -6.41748047 42.03491211 C-9.56235137 41.07908304 -10.92678758 39.78346318 -13.20703125 37.43359375 C-13.95791016 36.66982422 -14.70878906 35.90605469 -15.48242188 35.11914062 C-16.25134766 34.31669922 -17.02027344 33.51425781 -17.8125 32.6875 C-18.60076172 31.88119141 -19.38902344 31.07488281 -20.20117188 30.24414062 C-22.14342916 28.25479831 -24.07573661 26.25672729 -26 24.25 C-24.02247525 20.57060546 -22.0176464 16.90755992 -20 13.25 C-19.49726562 12.30898437 -18.99453125 11.36796875 -18.4765625 10.3984375 C-17.98929688 9.52445313 -17.50203125 8.65046875 -17 7.75 C-16.566875 6.9559375 -16.13375 6.161875 -15.6875 5.34375 C-11.527082 0.18174989 -6.23217244 -0.19282095 0 0 Z " fill="#241E1D" transform="translate(104,94.75)"/>
<path d="M0 0 C1.27228455 -0.01007584 2.54456909 -0.02015167 3.85540771 -0.03053284 C7.33499535 -0.05695783 10.81436144 -0.0640632 14.29403973 -0.0659802 C16.47213458 -0.0681176 18.65017372 -0.07453173 20.8282547 -0.08247185 C28.4389247 -0.11020355 36.04943741 -0.12248049 43.66015625 -0.12011719 C50.73470537 -0.11831682 57.80856676 -0.14993912 64.88294196 -0.19734818 C70.97237338 -0.23669025 77.06158114 -0.25266402 83.15113854 -0.25075096 C86.78119886 -0.24998917 90.41064796 -0.25836352 94.04058075 -0.29028511 C98.09523312 -0.32496977 102.14836424 -0.31101935 106.203125 -0.29296875 C107.39204346 -0.30982727 108.58096191 -0.32668579 109.8059082 -0.34405518 C117.70119943 -0.25501134 123.1800977 1.40677444 129.36035156 6.43579102 C133.71708414 11.18737954 135.47616937 15.46278054 135.52098083 21.8611145 C135.53604927 23.55165703 135.53604927 23.55165703 135.55142212 25.27635193 C135.55725311 26.5137764 135.56308411 27.75120087 135.5690918 29.02612305 C135.57887558 30.32883652 135.58865936 31.63154999 135.59873962 32.97373962 C135.63010827 37.29699737 135.65039324 41.62027423 135.66894531 45.94360352 C135.67224263 46.679918 135.67553996 47.41623248 135.6789372 48.17485952 C135.70972327 55.12366152 135.73642194 62.07246795 135.75335598 69.02131844 C135.7752434 77.89773084 135.81717395 86.77353691 135.88679355 95.64970696 C135.93412195 101.89698666 135.95830144 108.14410331 135.96555287 114.39155662 C135.97049691 118.11948647 135.98545611 121.84673273 136.02529716 125.57446671 C136.06922683 129.73971115 136.06524722 133.90362293 136.05737305 138.0690918 C136.08737396 139.90701042 136.08737396 139.90701042 136.11798096 141.78205872 C136.05158275 149.6181166 134.59677933 154.52321143 129.36035156 160.43579102 C124.64712811 164.91910113 120.25579158 166.67665843 113.7771759 166.7166748 C112.10991959 166.73380524 112.10991959 166.73380524 110.40898132 166.75128174 C109.19901993 166.75351746 107.98905853 166.75575317 106.74243164 166.75805664 C105.46053955 166.76798645 104.17864746 166.77791626 102.85791016 166.78814697 C99.34731815 166.8143201 95.83680252 166.82727056 92.32612824 166.83616829 C90.12912306 166.84204305 87.93213844 166.85025521 85.73514366 166.85917664 C78.8505707 166.88650939 71.96604511 166.90584997 65.08142167 166.91358042 C57.15407028 166.92253237 49.22741022 166.95759045 41.30026895 167.01558161 C35.15992112 167.05893018 29.01976696 167.0789951 22.87926787 167.08166265 C19.21786886 167.08375101 15.55712044 167.09539649 11.89588356 167.13130188 C7.80524962 167.17063918 3.71604694 167.16164116 -0.37475586 167.14868164 C-1.5745961 167.16711121 -2.77443634 167.18554077 -4.01063538 167.20452881 C-11.90980065 167.12636334 -17.64473688 165.78431089 -23.63964844 160.43579102 C-29.9347487 153.36923393 -30.50133368 146.36960503 -30.38427734 137.21850586 C-30.39157867 135.93267105 -30.39888 134.64683624 -30.40640259 133.32203674 C-30.42506974 129.82386171 -30.40650332 126.32682064 -30.37973833 122.82873487 C-30.35695032 119.15296431 -30.36533627 115.47724313 -30.36923218 111.80142212 C-30.37099273 105.63313472 -30.34894676 99.46528918 -30.31201172 93.29711914 C-30.2696463 86.18165358 -30.26266758 79.06683378 -30.27513564 71.9512676 C-30.28655134 65.08263587 -30.27520086 58.21422982 -30.25278854 51.34563065 C-30.24353775 48.43272319 -30.24173077 45.51995468 -30.24596024 42.60703659 C-30.25045065 38.53578023 -30.22141711 34.46541654 -30.18896484 30.39428711 C-30.19391968 29.19511154 -30.19887451 27.99593597 -30.20397949 26.76042175 C-30.10550849 19.00742273 -29.13297719 13.49538995 -23.92871094 7.44750977 C-23.37957031 7.01051758 -22.83042969 6.57352539 -22.26464844 6.12329102 C-21.72066406 5.6734082 -21.17667969 5.22352539 -20.61621094 4.76000977 C-13.69613039 0.12382932 -8.15396459 -0.00926119 0 0 Z M-23.31152534 10.54288673 C-26.35404652 15.16558816 -27.76123221 19.03026528 -27.78681946 24.59536743 C-27.79397476 25.6634967 -27.80113007 26.73162598 -27.8085022 27.8321228 C-27.8111911 29.0040921 -27.81388 30.1760614 -27.81665039 31.38354492 C-27.82322159 32.6179834 -27.82979279 33.85242188 -27.83656311 35.12426758 C-27.85631588 39.22029868 -27.86796665 43.31629059 -27.87792969 47.41235352 C-27.88197839 48.82466018 -27.88609535 50.23696665 -27.89027977 51.64927292 C-27.90933102 58.28770355 -27.92355997 64.92612309 -27.93189174 71.56457579 C-27.94165247 79.2144551 -27.96794149 86.86404415 -28.00839263 94.51382124 C-28.03861818 100.43414568 -28.05336685 106.35438725 -28.05667275 112.27478731 C-28.05901669 115.80693533 -28.06789018 119.33877328 -28.09313393 122.87083817 C-28.12088703 126.81787495 -28.11656383 130.7645346 -28.10961914 134.71166992 C-28.1224292 135.87149384 -28.13523926 137.03131775 -28.1484375 138.22628784 C-28.09861106 146.0122195 -26.98170649 152.54377404 -21.78808594 158.59204102 C-21.20285156 159.03547852 -20.61761719 159.47891602 -20.01464844 159.93579102 C-19.42425781 160.39985352 -18.83386719 160.86391602 -18.22558594 161.34204102 C-15.12240512 163.48216572 -13.09493506 163.56485568 -9.35235596 163.57623291 C-8.23078094 163.58194305 -7.10920593 163.5876532 -5.9536438 163.59353638 C-4.09907059 163.59521317 -4.09907059 163.59521317 -2.20703125 163.59692383 C-0.26058212 163.60437119 -0.26058212 163.60437119 1.72518921 163.61196899 C5.29147509 163.62510263 8.85774213 163.63154013 12.42404842 163.63597965 C14.65232281 163.63890957 16.88059204 163.64301428 19.10886383 163.64748383 C26.0810051 163.66116293 33.05313459 163.67082687 40.02528834 163.67468572 C48.07247442 163.67916396 56.11949042 163.69669915 64.16662478 163.72568631 C70.38666848 163.74731356 76.60666438 163.7573906 82.82674527 163.75872684 C86.54151267 163.75977437 90.25612029 163.76567061 93.97084808 163.78354645 C98.11738877 163.80311116 102.2635745 163.79873402 106.41015625 163.79223633 C108.25258408 163.8060585 108.25258408 163.8060585 110.13223267 163.82015991 C116.92923438 163.78674561 121.92634092 163.53227069 127.18847656 158.78735352 C127.65769531 158.21758789 128.12691406 157.64782227 128.61035156 157.06079102 C129.08988281 156.49618164 129.56941406 155.93157227 130.06347656 155.34985352 C132.7760805 151.34631156 133.6107501 147.74698731 133.6277771 142.95304871 C133.63630707 141.86389664 133.64483704 140.77474457 133.65362549 139.65258789 C133.65271912 138.46753662 133.65181274 137.28248535 133.65087891 136.06152344 C133.65759613 134.80567947 133.66431335 133.54983551 133.67123413 132.25593567 C133.68886969 128.81776814 133.69358851 125.37970023 133.6948657 121.94149184 C133.69628941 119.79073479 133.70056319 117.64000289 133.70586014 115.48925209 C133.72435332 107.97817 133.73253177 100.46715879 133.73095703 92.95605469 C133.72975627 85.96741836 133.75084734 78.97909118 133.78244436 71.99053305 C133.80864515 65.98015116 133.81932272 59.96987 133.81804621 53.95943147 C133.81753763 50.37426871 133.82316262 46.78938073 133.84440231 43.20427513 C133.86746656 39.20205123 133.85824072 35.20051446 133.84619141 31.19824219 C133.85743042 30.01926361 133.86866943 28.84028503 133.88024902 27.62557983 C133.8213982 19.92555359 132.96578302 14.08274376 127.32519531 8.37719727 C126.65617188 7.9221582 125.98714844 7.46711914 125.29785156 6.99829102 C124.62625 6.52520508 123.95464844 6.05211914 123.26269531 5.56469727 C119.82493242 3.52462853 116.9952179 3.30477735 113.08688354 3.28189087 C111.99351181 3.27329041 110.90014008 3.26468994 109.77363586 3.25582886 C107.97360359 3.24943893 107.97360359 3.24943893 106.13720703 3.24291992 C104.87350784 3.23474243 103.60980865 3.22656494 102.30781555 3.21813965 C98.11441168 3.19194377 93.92099798 3.17661108 89.72753906 3.16235352 C88.28180053 3.1569922 86.83606205 3.15161468 85.39032364 3.14622116 C79.37336784 3.12459299 73.35641468 3.10585901 67.33942986 3.09459877 C58.72934515 3.07837783 50.11971301 3.0452451 41.50979888 2.98819792 C35.44935068 2.9494192 29.3890231 2.92995655 23.32845414 2.92467821 C19.71239421 2.92103456 16.09681724 2.90912048 12.48089218 2.87657547 C8.44027851 2.84073003 4.40062932 2.84488568 0.35986328 2.85229492 C-1.42195091 2.82768692 -1.42195091 2.82768692 -3.23976135 2.80258179 C-11.15643793 2.86189484 -18.14353284 4.02957536 -23.31152534 10.54288673 Z " fill="#070300" transform="translate(30.6396484375,0.564208984375)"/>
<path d="M0 0 C0.66 0 1.32 0 2 0 C2.01417969 1.02480469 2.02835938 2.04960938 2.04296875 3.10546875 C2.08989016 4.46618971 2.13813744 5.82686541 2.1875 7.1875 C2.19330078 7.86103516 2.19910156 8.53457031 2.20507812 9.22851562 C2.37708741 13.1465049 2.85472687 14.83074749 5.4375 17.83984375 C6.283125 18.55269531 7.12875 19.26554687 8 20 C8.598125 20.78375 9.19625 21.5675 9.8125 22.375 C12.27222031 25.32666437 14.99410984 27.67001971 17.8984375 30.171875 C26.59761305 37.73918756 26.59761305 37.73918756 27.9375 41.9375 C27.958125 42.618125 27.97875 43.29875 28 44 C28.66 44 29.32 44 30 44 C30.07427838 47.34252724 30.06546953 49.8035914 29 53 C28.835 53.680625 28.67 54.36125 28.5 55.0625 C28 57 28 57 27 59 C26.34 59 25.68 59 25 59 C24.690625 59.804375 24.38125 60.60875 24.0625 61.4375 C23 64 23 64 22 65 C17.96839809 65.26293056 16.44107266 65.29404844 13 63 C13 62.34 13 61.68 13 61 C12.401875 60.7525 11.80375 60.505 11.1875 60.25 C8.61561243 58.78034996 7.46805623 57.56909841 6 55 C5.8125 52.25 5.8125 52.25 6 50 C5.34 50 4.68 50 4 50 C3.22099321 48.52512154 2.45232941 47.04478001 1.6875 45.5625 C1.25824219 44.73878906 0.82898437 43.91507813 0.38671875 43.06640625 C-3.25522157 35.01310161 -4.47877141 28.2301604 -4.375 19.375 C-4.38660156 18.37726563 -4.39820312 17.37953125 -4.41015625 16.3515625 C-4.3874954 10.64102885 -4.33991384 4.33991384 0 0 Z " fill="#F1D03D" transform="translate(35,63)"/>
<path d="M0 0 C-2.73532917 1.82355278 -5.46133615 3.29978959 -8.375 4.8125 C-12.66565324 7.12547466 -15.84659769 9.30290763 -19 13 C-17.68 14.32 -16.36 15.64 -15 17 C-11.45659102 15.68692823 -8.42570799 14.10180268 -5.25 12.0625 C-0.76314088 9.32611955 3.7837815 6.9493731 9 6 C12 7 12 7 13.17236328 9.04467773 C16.04180709 16.62233782 16.40087611 23.02880329 15.875 31.0625 C15.82601562 32.16916016 15.77703125 33.27582031 15.7265625 34.41601562 C15.26560074 43.28429138 14.73639447 51.35505907 10 59 C9.71935618 61.77003238 9.71935618 61.77003238 9.8125 64.8125 C9.30817601 76.03971252 4.79777799 86.5293338 1 97 C0.34 97 -0.32 97 -1 97 C-0.34 94.03 0.32 91.06 1 88 C0.34 88 -0.32 88 -1 88 C-1.33 86.68 -1.66 85.36 -2 84 C-0.68 84.66 0.64 85.32 2 86 C2.12117188 85.43152344 2.24234375 84.86304687 2.3671875 84.27734375 C3.14633536 80.68727017 3.93929846 77.18924598 5.0625 73.6875 C6.12648037 69.50251053 6.33189449 65.56315654 6.4609375 61.2578125 C6.9564798 58.26301338 7.64352651 56.51209218 8.9609375 53.83984375 C11.47773322 48.47488736 11.87786954 43.29467833 12.25 37.4375 C12.32734375 36.42880859 12.4046875 35.42011719 12.484375 34.38085938 C12.67088536 31.92125407 12.84244732 29.46160048 13 27 C11.42229503 26.50103216 9.84243795 26.00886619 8.26171875 25.51953125 C7.38217529 25.24471924 6.50263184 24.96990723 5.59643555 24.68676758 C-0.82621525 22.98795078 -5.52479503 24.14994144 -12 26 C-16.95 21.05 -21.9 16.1 -27 11 C-23 10 -23 10 -19 10 C-19 9.34 -19 8.68 -19 8 C-14.63522156 3.63522156 -6.17986623 -2.05995541 0 0 Z " fill="#EDD253" transform="translate(64,19)"/>
<path d="M0 0 C1.35937014 0.03146083 2.71874523 0.06270803 4.078125 0.09375 C13.93941517 0.4143092 23.08180077 1.64364741 31 8 C30.57808464 17.70405332 24.15167681 26.268417 17.1796875 32.671875 C5.79819627 42.16345071 -6.93142718 47.3897576 -21.6875 47.25 C-22.51572266 47.25773437 -23.34394531 47.26546875 -24.19726562 47.2734375 C-29.66085118 47.25594003 -33.95181866 47.04818134 -38 43 C-39.44359328 31.29658304 -34.43556294 23.21506168 -28.21875 13.85595703 C-27.18164776 12.27661985 -26.20853212 10.6555646 -25.25 9.02734375 C-22.90352923 5.10593201 -20.78456385 1.84537749 -16.21484375 0.35546875 C-10.82962369 -0.50882583 -5.42867898 -0.21801924 0 0 Z M-21 6 C-23.30597276 9.0847427 -25.12570578 12.35695798 -26.9375 15.75 C-27.43056641 16.63816406 -27.92363281 17.52632812 -28.43164062 18.44140625 C-29.63762982 20.61921197 -30.82615989 22.80474999 -32 25 C-28.10735003 29.60354172 -24.16474511 34.14003247 -20 38.5 C-19.2575 39.32371094 -19.2575 39.32371094 -18.5 40.1640625 C-16.85046589 41.95285093 -16.85046589 41.95285093 -14 44 C-10.96055721 44.12565747 -10.96055721 44.12565747 -8 43 C-6.98421875 42.68804687 -5.9684375 42.37609375 -4.921875 42.0546875 C9.73422145 36.60377478 20.93757077 28.15072817 28 14 C28.23486397 11.84753433 28.23486397 11.84753433 26.35546875 10.34375 C25.28232422 9.43109375 25.28232422 9.43109375 24.1875 8.5 C23.47980469 7.8915625 22.77210938 7.283125 22.04296875 6.65625 C16.13146569 1.86375038 10.34805111 2.29214525 3 2 C2.27216309 1.96600098 1.54432617 1.93200195 0.79443359 1.89697266 C-1.44955364 1.80110072 -3.69209776 1.73932837 -5.9375 1.6875 C-6.98284912 1.64278564 -6.98284912 1.64278564 -8.04931641 1.59716797 C-13.16061874 1.53968264 -17.19819297 2.56391364 -21 6 Z " fill="#D4BE64" transform="translate(110,93)"/>
<path d="M0 0 C2.125 0.9375 2.125 0.9375 4 2 C3.40832031 2.24492188 2.81664062 2.48984375 2.20703125 2.7421875 C1.41683594 3.11601563 0.62664063 3.48984375 -0.1875 3.875 C-0.96480469 4.22304687 -1.74210938 4.57109375 -2.54296875 4.9296875 C-7.06839912 8.74284822 -9.54461155 14.11486266 -10.46302986 19.93354988 C-10.63956917 23.21274146 -10.66458334 26.45864027 -10.63110352 29.74243164 C-10.63825882 30.9778923 -10.64541412 32.21335297 -10.65278625 33.48625183 C-10.66671366 36.84622408 -10.65845428 40.20463633 -10.63869596 43.56447911 C-10.62219428 47.09698469 -10.63113807 50.629444 -10.63621521 54.16197205 C-10.64072283 60.09061362 -10.62494815 66.01893831 -10.59692383 71.94750977 C-10.56486287 78.78234003 -10.56489759 85.61659959 -10.5821386 92.45147043 C-10.59805148 99.0531168 -10.59124065 105.65455577 -10.57420158 112.25619316 C-10.5673648 115.0538536 -10.56832846 117.8513461 -10.57574654 120.64900398 C-10.58489357 124.56187496 -10.56077216 128.47416904 -10.53344727 132.38696289 C-10.53997314 133.53578949 -10.54649902 134.68461609 -10.55322266 135.86825562 C-10.46137568 143.62727183 -9.57640115 149.83140476 -4.4066782 155.85715008 C1.36790071 161.01808406 7.40929506 160.84948225 14.84179688 160.77294922 C16.74549545 160.78889381 16.74549545 160.78889381 18.68765259 160.80516052 C22.14604986 160.83345837 25.60348945 160.82529144 29.06193352 160.81029272 C32.68417021 160.80087911 36.30617843 160.8253941 39.92834473 160.84622192 C46.7776149 160.880496 53.62655089 160.88450957 60.47588968 160.87749684 C68.27772059 160.87099381 76.07931815 160.89846031 83.88107967 160.92869925 C99.9207614 160.99011084 115.96019996 161.00912665 132 161 C132 161.33 132 161.66 132 162 C115.07553223 162.27117232 98.15098346 162.50727565 81.22547245 162.70202446 C73.36605022 162.79326798 65.50708515 162.89583667 57.64819336 163.02539062 C50.79567229 163.13832545 43.94325505 163.22968154 37.09011358 163.29549801 C33.46369665 163.33106946 29.83812829 163.37718953 26.2122364 163.44918442 C22.15711063 163.5292967 18.10293878 163.56120513 14.04711914 163.58935547 C12.85452988 163.62027786 11.66194061 163.65120026 10.43321228 163.68305969 C2.7693365 163.68420222 -2.45550893 162.50575854 -8 157 C-13.64724152 150.31288975 -13.71336602 143.33005995 -13.63110352 134.89624023 C-13.63825882 133.61055145 -13.64541412 132.32486267 -13.65278625 131.00021362 C-13.67119133 127.4979881 -13.65843275 123.99653066 -13.63869596 120.4943378 C-13.62222057 116.81588381 -13.63113447 113.13747509 -13.63621521 109.45899963 C-13.64072575 103.28479854 -13.62492992 97.11090142 -13.59692383 90.93676758 C-13.56486218 83.81395057 -13.56489642 76.69168113 -13.5821386 69.56882519 C-13.59803921 62.69540682 -13.59124844 55.82218787 -13.57420158 48.94877815 C-13.56735617 46.03306789 -13.56833747 43.11751869 -13.57574654 40.20181084 C-13.58487788 36.12568976 -13.56079862 32.05040473 -13.53344727 27.97436523 C-13.53997314 26.77361862 -13.54649902 25.57287201 -13.55322266 24.33573914 C-13.46447733 16.5448334 -12.52909212 10.92369524 -7.1484375 4.94140625 C-6.56320313 4.48636719 -5.97796875 4.03132812 -5.375 3.5625 C-4.78460938 3.08941406 -4.19421875 2.61632812 -3.5859375 2.12890625 C-2 1 -2 1 0 0 Z " fill="#281F0B" transform="translate(14,3)"/>
<path d="M0 0 C0.66 0 1.32 0 2 0 C3.53160126 3.06320252 3.60134428 5.69874264 3 9 C-1.87369727 21.29206833 -13.70317877 31.64575902 -25.34375 37.2421875 C-28.4020788 38.11471072 -29.99899303 37.99702876 -33 37 C-35.32765516 35.55089581 -36.99225196 33.91436441 -39 32 C-39 31.34 -39 30.68 -39 30 C-38.39414063 29.78085938 -37.78828125 29.56171875 -37.1640625 29.3359375 C-21.89713301 23.55799188 -9.10587419 13.65881128 0 0 Z " fill="#241D17" transform="translate(147,117)"/>
<path d="M0 0 C1.24977127 -0.00073013 2.49954254 -0.00146027 3.78718567 -0.00221252 C7.18797824 0.00065849 10.587222 0.02559709 13.98774076 0.06065726 C17.5511011 0.09207771 21.11448575 0.09486377 24.67796326 0.1007843 C31.4139769 0.11627703 38.14958106 0.15724265 44.88541502 0.20753175 C52.55893843 0.26356849 60.23248218 0.29094756 67.90615952 0.31600893 C83.68043335 0.36816334 99.45429945 0.45601544 115.22827148 0.56762695 C115.22827148 0.89762695 115.22827148 1.22762695 115.22827148 1.56762695 C114.59750482 1.56909351 113.96673815 1.57056007 113.31685734 1.57207108 C97.94168944 1.6091847 82.56678448 1.66825941 67.19180393 1.75152969 C59.75644652 1.79127426 52.32119425 1.82368991 44.88574219 1.83862305 C38.40209214 1.85166346 31.91867387 1.87868862 25.43515438 1.92224002 C22.00474689 1.94480162 18.57462469 1.96054086 15.14413643 1.9595108 C11.30667643 1.96188063 7.47011696 1.98896487 3.6328125 2.02172852 C1.94211136 2.01418297 1.94211136 2.01418297 0.21725464 2.00648499 C-8.00200277 2.11480178 -14.06922972 3.7505083 -20.64672852 8.75512695 C-23.42284291 12.429396 -24.58950385 16.15591054 -25.77172852 20.56762695 C-24.45172852 20.23762695 -23.13172852 19.90762695 -21.77172852 19.56762695 C-21.77172852 18.90762695 -21.77172852 18.24762695 -21.77172852 17.56762695 C-21.11172852 17.56762695 -20.45172852 17.56762695 -19.77172852 17.56762695 C-19.77172852 16.90762695 -19.77172852 16.24762695 -19.77172852 15.56762695 C-19.11172852 15.56762695 -18.45172852 15.56762695 -17.77172852 15.56762695 C-17.77172852 14.90762695 -17.77172852 14.24762695 -17.77172852 13.56762695 C-17.11172852 13.56762695 -16.45172852 13.56762695 -15.77172852 13.56762695 C-15.77172852 12.90762695 -15.77172852 12.24762695 -15.77172852 11.56762695 C-15.11172852 11.56762695 -14.45172852 11.56762695 -13.77172852 11.56762695 C-13.33860352 10.63950195 -13.33860352 10.63950195 -12.89672852 9.69262695 C-11.77172852 7.56762695 -11.77172852 7.56762695 -9.77172852 5.56762695 C-7.14672852 5.94262695 -7.14672852 5.94262695 -4.77172852 6.56762695 C-4.44172852 7.88762695 -4.11172852 9.20762695 -3.77172852 10.56762695 C-5.42172852 9.90762695 -7.07172852 9.24762695 -8.77172852 8.56762695 C-14.05172852 13.84762695 -19.33172852 19.12762695 -24.77172852 24.56762695 C-22.79172852 26.87762695 -20.81172852 29.18762695 -18.77172852 31.56762695 C-17.75554391 32.88866693 -16.74556973 34.21506972 -15.77172852 35.56762695 C-16.76172852 35.56762695 -17.75172852 35.56762695 -18.77172852 35.56762695 C-19.26672852 34.08262695 -19.26672852 34.08262695 -19.77172852 32.56762695 C-21.68839518 31.40096029 -21.68839518 31.40096029 -23.77172852 30.56762695 C-24.43172852 30.23762695 -25.09172852 29.90762695 -25.77172852 29.56762695 C-25.77172852 44.74762695 -25.77172852 59.92762695 -25.77172852 75.56762695 C-26.10172852 75.56762695 -26.43172852 75.56762695 -26.77172852 75.56762695 C-26.88796377 67.62209071 -26.97661466 59.6769141 -27.03078938 51.73073578 C-27.05680066 48.04031685 -27.09204017 44.35048278 -27.14892578 40.66040039 C-27.20355312 37.09418554 -27.23321264 33.52853052 -27.24611473 29.96192932 C-27.25974765 27.95005814 -27.29873199 25.93840987 -27.33821106 23.92687988 C-27.34046872 16.50996413 -27.06808569 11.04126165 -21.77172852 5.56762695 C-14.90100748 0.24237629 -8.44840361 -0.13041381 0 0 Z " fill="#E3CE69" transform="translate(30.771728515625,3.432373046875)"/>
<path d="M0 0 C4.06058546 1.51401829 6.50947168 4.25350771 9.484375 7.33203125 C10.07347656 7.91404297 10.66257812 8.49605469 11.26953125 9.09570312 C16.19478357 14.09455117 16.19478357 14.09455117 16.734375 18.01953125 C16.404375 18.67953125 16.074375 19.33953125 15.734375 20.01953125 C13.33823374 20.07378351 10.94333647 20.11332152 8.546875 20.14453125 C7.53657227 20.16966797 7.53657227 20.16966797 6.50585938 20.1953125 C2.45009094 20.23488097 -0.65521548 19.9072408 -4.265625 18.01953125 C-6.265625 16.01953125 -6.265625 16.01953125 -6.34765625 12.83203125 C-6.25871094 11.57390625 -6.16976562 10.31578125 -6.078125 9.01953125 C-6.00207031 7.76140625 -5.92601563 6.50328125 -5.84765625 5.20703125 C-5.65558594 4.15515625 -5.46351562 3.10328125 -5.265625 2.01953125 C-2.265625 0.01953125 -2.265625 0.01953125 0 0 Z " fill="#EDCC3F" transform="translate(78.265625,119.98046875)"/>
<path d="M0 0 C0.45890625 0.39832031 0.9178125 0.79664063 1.390625 1.20703125 C4.52271585 3.91142062 7.63877459 6.57991771 11 9 C10.83757813 9.51691406 10.67515625 10.03382812 10.5078125 10.56640625 C9.8486782 13.72518064 9.86811514 16.71194441 9.875 19.9375 C9.87242188 21.14277344 9.86984375 22.34804687 9.8671875 23.58984375 C9.98178199 26.53222592 10.31737461 29.14489223 11 32 C10.01 31.34 9.02 30.68 8 30 C7.77862607 27.37302936 7.71837975 24.99106036 7.8125 22.375 C7.83280273 21.31539062 7.83280273 21.31539062 7.85351562 20.234375 C7.8888896 18.48925872 7.94269779 16.74453392 8 15 C4.21543219 17.52304521 4.0287682 18.60610218 3 23 C2.67010053 26.71173893 2.61929092 30.39997322 2.625 34.125 C2.62588623 35.15020752 2.62677246 36.17541504 2.62768555 37.23168945 C2.75639155 45.4656069 3.41260864 53.36806986 8.63671875 60.11328125 C10 62 10 62 10 65 C10.66 65 11.32 65 12 65 C11.67 66.32 11.34 67.64 11 69 C1.85500049 54.97424232 -2.83076215 39.60875467 0.41015625 22.88330078 C1.16751645 19.77558948 2.104225 16.75308203 3.125 13.72265625 C4.15298248 11.00061271 4.15298248 11.00061271 4 8 C1.5609294 5.79857668 1.5609294 5.79857668 -1 4 C-7.55180827 17.83529057 -8.50284472 31.9519063 -8 47 C-8.66 47 -9.32 47 -10 47 C-10.08772579 42.66679605 -10.14063579 38.33382332 -10.1875 34 C-10.21263672 32.77925781 -10.23777344 31.55851562 -10.26367188 30.30078125 C-10.31957139 23.40650746 -9.89769804 18.26848965 -7 12 C-6.62033354 10.34327363 -6.26239024 8.67929755 -6 7 C-5.34 7 -4.68 7 -4 7 C-3.67 5.35 -3.34 3.7 -3 2 C-2.01 2 -1.02 2 0 2 C0 1.34 0 0.68 0 0 Z " fill="#D1BA58" transform="translate(29,48)"/>
<path d="M0 0 C0.66 0 1.32 0 2 0 C2.48405317 23.18076826 2.48405317 23.18076826 -1.5625 29.40234375 C-3.27646307 32.49958679 -3.23616064 34.29566259 -3.1875 37.8125 C-3.69182399 49.03971252 -8.20222201 59.5293338 -12 70 C-12.66 70 -13.32 70 -14 70 C-13.34 67.03 -12.68 64.06 -12 61 C-12.66 61 -13.32 61 -14 61 C-14.33 59.68 -14.66 58.36 -15 57 C-13.68 57.66 -12.36 58.32 -11 59 C-10.87882812 58.43152344 -10.75765625 57.86304688 -10.6328125 57.27734375 C-9.85366464 53.68727017 -9.06070154 50.18924598 -7.9375 46.6875 C-6.87351963 42.50251053 -6.66810551 38.56315654 -6.5390625 34.2578125 C-6.0435202 31.26301338 -5.35647349 29.51209218 -4.0390625 26.83984375 C-1.52226678 21.47488736 -1.12213046 16.29467833 -0.75 10.4375 C-0.67265625 9.42880859 -0.5953125 8.42011719 -0.515625 7.38085938 C-0.32911464 4.92125407 -0.15755268 2.46160048 0 0 Z " fill="#D6C683" transform="translate(77,46)"/>
<path d="M0 0 C4.63404081 1.19161049 6.4048178 3.46655266 8.984375 7.24609375 C10.95201985 10.64406506 11.12395373 13.45998366 11.12025452 17.29606628 C11.12162918 18.3940303 11.12300385 19.49199432 11.12442017 20.62322998 C11.12082489 21.82804016 11.11722961 23.03285034 11.11352539 24.27416992 C11.11367142 25.54257217 11.11381744 26.81097443 11.1139679 28.11781311 C11.11425511 31.59687748 11.10837057 35.07590746 11.10139394 38.55496383 C11.09514785 42.19047481 11.0945556 45.82598656 11.09336853 49.46150208 C11.09025893 56.34627382 11.08205052 63.23102972 11.07201904 70.11579448 C11.06084641 77.95368129 11.05534455 85.79156886 11.05032361 93.62946165 C11.03986761 109.75298372 11.02227533 125.87648984 11 142 C10.67 142 10.34 142 10 142 C10 99.43 10 56.86 10 13 C9.34 13 8.68 13 8 13 C7.89042969 12.43410156 7.78085938 11.86820313 7.66796875 11.28515625 C7.50941406 10.55167969 7.35085937 9.81820313 7.1875 9.0625 C7.03667969 8.33160156 6.88585937 7.60070312 6.73046875 6.84765625 C6.48941406 6.23792969 6.24835938 5.62820312 6 5 C5.01 4.67 4.02 4.34 3 4 C3 3.34 3 2.68 3 2 C2.01 1.67 1.02 1.34 0 1 C0 0.67 0 0.34 0 0 Z " fill="#D0B84E" transform="translate(153,7)"/>
<path d="M0 0 C-2.73532917 1.82355278 -5.46133615 3.29978959 -8.375 4.8125 C-12.66565324 7.12547466 -15.84659769 9.30290763 -19 13 C-17.5459375 14.11375 -17.5459375 14.11375 -16.0625 15.25 C-13.97612639 16.97309915 -13.09887521 17.73868694 -12.125 20.3125 C-12.063125 21.1478125 -12.063125 21.1478125 -12 22 C-9.62343787 22 -7.24630688 21.97459461 -4.87109375 21.89453125 C-3.73800781 21.86746094 -2.60492188 21.84039062 -1.4375 21.8125 C-0.30183594 21.77769531 0.83382812 21.74289063 2.00390625 21.70703125 C5 22 5 22 6.90234375 23.51171875 C7.44568359 24.24841797 7.44568359 24.24841797 8 25 C7.01 24.7525 7.01 24.7525 6 24.5 C-0.9522125 23.34129792 -5.14525281 24.0415008 -12 26 C-16.95 21.05 -21.9 16.1 -27 11 C-23 10 -23 10 -19 10 C-19 9.34 -19 8.68 -19 8 C-14.63522156 3.63522156 -6.17986623 -2.05995541 0 0 Z " fill="#DCC667" transform="translate(64,19)"/>
<path d="M0 0 C0.93972656 -0.00128906 1.87945312 -0.00257812 2.84765625 -0.00390625 C3.83636719 -0.00003906 4.82507813 0.00382813 5.84375 0.0078125 C7.32681641 0.00201172 7.32681641 0.00201172 8.83984375 -0.00390625 C9.77957031 -0.00261719 10.71929687 -0.00132813 11.6875 0 C12.55568359 0.00112793 13.42386719 0.00225586 14.31835938 0.00341797 C16.34375 0.1328125 16.34375 0.1328125 17.34375 1.1328125 C18.375 1.2771875 19.40625 1.4215625 20.46875 1.5703125 C24.28720392 2.1246042 27.66594105 3.00695262 31.34375 4.1328125 C31.34375 4.7928125 31.34375 5.4528125 31.34375 6.1328125 C32.66375 6.1328125 33.98375 6.1328125 35.34375 6.1328125 C35.34375 6.7928125 35.34375 7.4528125 35.34375 8.1328125 C36.66375 8.1328125 37.98375 8.1328125 39.34375 8.1328125 C39.34375 8.7928125 39.34375 9.4528125 39.34375 10.1328125 C40.271875 10.349375 40.271875 10.349375 41.21875 10.5703125 C43.34375 11.1328125 43.34375 11.1328125 45.34375 12.1328125 C45.01375 13.1228125 44.68375 14.1128125 44.34375 15.1328125 C43.78429687 14.75769531 43.22484375 14.38257813 42.6484375 13.99609375 C26.74470545 3.84531943 8.90594337 0.73410104 -9.65625 4.1328125 C-12.03169425 4.71229704 -14.32458721 5.3886648 -16.65625 6.1328125 C-16.65625 5.4728125 -16.65625 4.8128125 -16.65625 4.1328125 C-13.11542084 2.008315 -9.70633109 1.66772887 -5.65625 1.1328125 C-4.03424485 -0.48919265 -2.23601969 0.002905 0 0 Z " fill="#EDD570" transform="translate(81.65625,12.8671875)"/>
<path d="M0 0 C0 0.33 0 0.66 0 1 C-5.82108422 1.56692298 -11.58799793 2.05995251 -17.4375 1.9609375 C-18.55813843 1.94256836 -18.55813843 1.94256836 -19.70141602 1.92382812 C-21.16320372 1.89190788 -22.62477941 1.84688083 -24.08569336 1.78710938 C-28.91890692 1.68205193 -32.07365401 2.13424951 -36 5 C-38.26647657 8.02641065 -40.07044111 11.24515193 -41.875 14.5625 C-42.37257813 15.43841797 -42.87015625 16.31433594 -43.3828125 17.21679688 C-45.99590977 21.37017956 -45.99590977 21.37017956 -47 26 C-48.32 26.33 -49.64 26.66 -51 27 C-49.32280712 22.36732128 -46.9856227 18.20830269 -44.5625 13.9375 C-44.16740234 13.23044922 -43.77230469 12.52339844 -43.36523438 11.79492188 C-37.58914315 1.55941912 -37.58914315 1.55941912 -32.3203125 -0.46875 C-22.13586823 -2.80054195 -10.38113438 -0.75499159 0 0 Z " fill="#C4B471" transform="translate(126,94)"/>
<path d="M0 0 C0.495 0.99 0.495 0.99 1 2 C2.32 2 3.64 2 5 2 C4.67 2.99 4.34 3.98 4 5 C3.505 4.01 3.505 4.01 3 3 C0.10640391 5.80591136 -2.58743792 8.66935772 -5.1875 11.75 C-11.61936333 19.07709056 -18.28384614 24.93841331 -26.875 29.5625 C-27.51759766 29.90925781 -28.16019531 30.25601563 -28.82226562 30.61328125 C-32.21431066 32.35388901 -34.1049633 33 -38 33 C-37.67 33.99 -37.34 34.98 -37 36 C-37.66 36 -38.32 36 -39 36 C-39 35.34 -39 34.68 -39 34 C-40.65 34 -42.3 34 -44 34 C-40.78270568 31.85513712 -37.82298277 30.80953515 -34.1875 29.5 C-28.35362637 27.28118244 -23.31403366 24.52276964 -18.25 20.875 C-17.66629639 20.45541016 -17.08259277 20.03582031 -16.48120117 19.60351562 C-13.44535682 17.33302149 -11.21908754 15.04773416 -9 12 C-8.34 12 -7.68 12 -7 12 C-6.72414062 11.42765625 -6.44828125 10.8553125 -6.1640625 10.265625 C-5.00532152 8.01035733 -3.73124294 5.89143622 -2.375 3.75 C-1.70597656 2.69039063 -1.70597656 2.69039063 -1.0234375 1.609375 C-0.68570313 1.07828125 -0.34796875 0.5471875 0 0 Z " fill="#CFBC6D" transform="translate(146,114)"/>
<path d="M0 0 C1.12894876 0.93274109 2.25300876 1.87140122 3.375 2.8125 C4.00148438 3.33457031 4.62796875 3.85664062 5.2734375 4.39453125 C7 6 7 6 9 9 C4.59885603 8.49701212 2.28804981 6.91227269 -1 4 C-7.55180827 17.83529057 -8.50284472 31.9519063 -8 47 C-8.66 47 -9.32 47 -10 47 C-10.08772579 42.66679605 -10.14063579 38.33382332 -10.1875 34 C-10.21263672 32.77925781 -10.23777344 31.55851562 -10.26367188 30.30078125 C-10.31957139 23.40650746 -9.89769804 18.26848965 -7 12 C-6.62033354 10.34327363 -6.26239024 8.67929755 -6 7 C-5.34 7 -4.68 7 -4 7 C-3.67 5.35 -3.34 3.7 -3 2 C-2.01 2 -1.02 2 0 2 C0 1.34 0 0.68 0 0 Z " fill="#DCC45D" transform="translate(29,48)"/>
<path d="M0 0 C-1.2582741 3.77482231 -2.95056766 4.28780234 -6.38476562 6.00976562 C-7.10341797 6.35716797 -7.82207031 6.70457031 -8.5625 7.0625 C-9.25408203 7.41376953 -9.94566406 7.76503906 -10.65820312 8.12695312 C-16.72724333 11.11905216 -23.21157579 14.12138257 -30 12 C-29.34 10.68 -28.68 9.36 -28 8 C-27.3296875 8.22171875 -26.659375 8.4434375 -25.96875 8.671875 C-21.98803782 9.11184845 -19.07980266 7.79534056 -15.5 6.25 C-14.84902344 5.98445312 -14.19804688 5.71890625 -13.52734375 5.4453125 C-10.61960987 4.23522527 -7.90629788 2.94262061 -5.21875 1.296875 C-3 0 -3 0 0 0 Z " fill="#D0BA60" transform="translate(123,127)"/>
<path d="M0 0 C0.33 0 0.66 0 1 0 C1.00808685 0.88283157 1.01617371 1.76566315 1.02450562 2.67524719 C1.1023982 10.98906081 1.18967265 19.30271131 1.28752708 27.61631489 C1.33750482 31.89057981 1.38383465 36.16481983 1.421875 40.43920898 C1.45870926 44.56308282 1.50506399 48.68674913 1.55806351 52.81044579 C1.57661738 54.38489332 1.59172168 55.95938535 1.60334396 57.53389931 C1.62018966 59.73676498 1.64921977 61.93915434 1.68115234 64.1418457 C1.69447601 65.39649124 1.70779968 66.65113678 1.7215271 67.94380188 C1.77081277 71.17287194 1.77081277 71.17287194 4 74 C3.625 76.1875 3.625 76.1875 3 78 C0.30813486 73.36825533 -0.36865039 70.04357348 -0.34057617 64.70947266 C-0.34101425 64.00633942 -0.34145233 63.30320618 -0.34190369 62.57876587 C-0.33982728 60.27357417 -0.31655188 57.96912585 -0.29296875 55.6640625 C-0.28736868 54.05838417 -0.28310052 52.45270069 -0.28010559 50.84701538 C-0.2686891 46.63504716 -0.23924979 42.4233927 -0.20599365 38.21154785 C-0.17522357 33.90800215 -0.16158547 29.60440541 -0.14648438 25.30078125 C-0.1143767 16.86704403 -0.06321945 8.43356112 0 0 Z " fill="#ECCF56" transform="translate(4,79)"/>
<path d="M0 0 C0.99 0 1.98 0 3 0 C1.68764148 6.36430174 -0.01219415 12.42121028 -2.125 18.5625 C-2.40214844 19.38041016 -2.67929688 20.19832031 -2.96484375 21.04101562 C-3.63905137 23.02876568 -4.31892204 25.01459349 -5 27 C-5.66 27 -6.32 27 -7 27 C-6.34 24.03 -5.68 21.06 -5 18 C-5.66 18 -6.32 18 -7 18 C-7.33 16.68 -7.66 15.36 -8 14 C-6.02 14.99 -6.02 14.99 -4 16 C-3.87882812 15.43152344 -3.75765625 14.86304687 -3.6328125 14.27734375 C-2.58677946 9.45754536 -1.40795516 4.7267066 0 0 Z " fill="#C5B065" transform="translate(70,89)"/>
<path d="M0 0 C4.63404081 1.19161049 6.4048178 3.46655266 8.984375 7.24609375 C11.43539913 11.47882388 11.1283863 15.66019738 11.09765625 20.38671875 C11.0962413 21.20372757 11.09482635 22.02073639 11.09336853 22.86250305 C11.08777294 25.47087268 11.07522129 28.07915634 11.0625 30.6875 C11.05748443 32.45637897 11.05292162 34.22525928 11.04882812 35.99414062 C11.03780496 40.32946019 11.02054338 44.66471552 11 49 C10.67 49 10.34 49 10 49 C10 37.12 10 25.24 10 13 C9.34 13 8.68 13 8 13 C7.89042969 12.43410156 7.78085938 11.86820313 7.66796875 11.28515625 C7.50941406 10.55167969 7.35085937 9.81820313 7.1875 9.0625 C7.03667969 8.33160156 6.88585937 7.60070312 6.73046875 6.84765625 C6.48941406 6.23792969 6.24835938 5.62820312 6 5 C5.01 4.67 4.02 4.34 3 4 C3 3.34 3 2.68 3 2 C2.01 1.67 1.02 1.34 0 1 C0 0.67 0 0.34 0 0 Z " fill="#CFBB5A" transform="translate(153,7)"/>
<path d="M0 0 C6.09781001 -0.22084624 11.21642935 -0.01167675 17 2 C17 2.66 17 3.32 17 4 C18.32 4 19.64 4 21 4 C21 4.66 21 5.32 21 6 C22.32 6 23.64 6 25 6 C25 6.66 25 7.32 25 8 C25.61875 8.144375 26.2375 8.28875 26.875 8.4375 C29 9 29 9 31 10 C30.67 10.99 30.34 11.98 30 13 C29.44054687 12.62488281 28.88109375 12.24976563 28.3046875 11.86328125 C19.63039768 6.32679723 10.23013802 2.44151945 0 1 C0 0.67 0 0.34 0 0 Z " fill="#DAC566" transform="translate(96,15)"/>
<path d="M0 0 C1.258125 -0.04125 2.51625 -0.0825 3.8125 -0.125 C4.52019531 -0.14820312 5.22789063 -0.17140625 5.95703125 -0.1953125 C8 0 8 0 11 2 C7.37 2.33 3.74 2.66 0 3 C0 9.6 0 16.2 0 23 C-0.33 23 -0.66 23 -1 23 C-3.07521882 15.21792944 -2.2545707 7.6091761 0 0 Z " fill="#E4CF6C" transform="translate(93,25)"/>
<path d="M0 0 C0.33 0.99 0.66 1.98 1 3 C-1.0780065 4.17713663 -3.16151783 5.34171974 -5.25 6.5 C-5.83652344 6.83386719 -6.42304687 7.16773438 -7.02734375 7.51171875 C-10.38582107 9.36076806 -12.06645784 10 -16 10 C-15.67 10.99 -15.34 11.98 -15 13 C-15.66 13 -16.32 13 -17 13 C-17 12.34 -17 11.68 -17 11 C-18.65 11 -20.3 11 -22 11 C-18.10490186 8.40326791 -13.89153443 6.94066052 -9.53710938 5.29882812 C-5.95809294 3.91191492 -2.92510092 2.50616063 0 0 Z " fill="#CDBA6A" transform="translate(124,137)"/>
<path d="M0 0 C1.16457166 3.45271225 1.0773536 3.84163542 -0.65234375 7.3828125 C-1.40178232 8.63762469 -2.16401446 9.88486616 -2.9375 11.125 C-5.83108591 15.28385975 -5.83108591 15.28385975 -7 20 C-8.32 20.33 -9.64 20.66 -11 21 C-9.3003494 16.26525903 -6.86340973 12.03832889 -4.375 7.6875 C-3.95476562 6.94693359 -3.53453125 6.20636719 -3.1015625 5.44335938 C-2.07051505 3.62730989 -1.03563954 1.81343467 0 0 Z " fill="#CFBC6B" transform="translate(86,100)"/>
<path d="M0 0 C0 3.8532561 -0.93642513 5.88141263 -3.5859375 8.66796875 C-4.47152344 9.42013672 -4.47152344 9.42013672 -5.375 10.1875 C-5.96023437 10.69667969 -6.54546875 11.20585937 -7.1484375 11.73046875 C-9.11024909 13.07559273 -10.676089 13.57514402 -13 14 C-8.88380164 9.08064098 -4.59589638 4.47352044 0 0 Z " fill="#DBBF4C" transform="translate(144,135)"/>
<path d="M0 0 C14.50065531 1.19528178 14.50065531 1.19528178 21 3 C21.33 3.66 21.66 4.32 22 5 C14.46783285 4.55761615 7.3197277 3.86094772 0 2 C0 1.34 0 0.68 0 0 Z " fill="#C7B569" transform="translate(107,85)"/>
<path d="M0 0 C4.07376031 1.61010527 6.76507069 4.53822271 9.75 7.625 C10.25660156 8.140625 10.76320313 8.65625 11.28515625 9.1875 C12.52803902 10.45383339 13.76465276 11.7263144 15 13 C14.34 13.66 13.68 14.32 13 15 C10.82722286 12.88094537 8.66173092 10.75527122 6.5 8.625 C5.87996094 8.02171875 5.25992188 7.4184375 4.62109375 6.796875 C4.03457031 6.21679688 3.44804688 5.63671875 2.84375 5.0390625 C2.29912109 4.50490723 1.75449219 3.97075195 1.19335938 3.42041016 C0 2 0 2 0 0 Z " fill="#D3BA50" transform="translate(47,89)"/>
<path d="M0 0 C5.89422029 2.46531082 8.2246523 8.12118607 10.8125 13.6875 C11.91313173 16.75768325 12.29222823 18.78548949 12 22 C9.50916566 18.26374849 7.62371687 14.29307747 5.65429688 10.26953125 C3.91439056 6.74442822 2.0756154 3.33875749 0 0 Z " fill="#DCC664" transform="translate(140,40)"/>
<path d="M0 0 C0.99 0 1.98 0 3 0 C1.32073668 4.36778087 -0.63305917 8.58165008 -2.625 12.8125 C-3.11226563 13.85180664 -3.11226563 13.85180664 -3.609375 14.91210938 C-4.40499885 16.60866023 -5.20232699 18.30441165 -6 20 C-6.66 19.67 -7.32 19.34 -8 19 C-5.36 12.73 -2.72 6.46 0 0 Z " fill="#C9B76F" transform="translate(76,100)"/>
<path d="M0 0 C1.875 0.125 1.875 0.125 4 1 C4.309375 1.969375 4.61875 2.93875 4.9375 3.9375 C5.67018244 7.21207243 5.67018244 7.21207243 8.5625 8.25 C9.366875 8.4975 10.17125 8.745 11 9 C11.33 9.66 11.66 10.32 12 11 C8.11617586 10.72903553 6.26826936 10.21461548 3.1875 7.75 C0.98782572 4.98469519 0.2972185 3.46754912 0 0 Z " fill="#CDB963" transform="translate(95,66)"/>
<path d="M0 0 C-0.33 0.598125 -0.66 1.19625 -1 1.8125 C-2.20787988 4.05386471 -2.20787988 4.05386471 -2 7 C-1.67 7.66 -1.34 8.32 -1 9 C-3.94956528 7.63055898 -6.52468811 6.12169591 -9 4 C-9 3.34 -9 2.68 -9 2 C-3.375 0 -3.375 0 0 0 Z " fill="#29200D" transform="translate(117,145)"/>
<path d="M0 0 C0.33 0 0.66 0 1 0 C1.01981934 0.7113208 1.03963867 1.4226416 1.06005859 2.15551758 C1.15524867 5.37488816 1.26495229 8.5936045 1.375 11.8125 C1.4059375 12.93205078 1.436875 14.05160156 1.46875 15.20507812 C1.50742188 16.27822266 1.54609375 17.35136719 1.5859375 18.45703125 C1.6173584 19.44678955 1.6487793 20.43654785 1.68115234 21.45629883 C1.83773433 24.24075094 1.83773433 24.24075094 4 27 C3.625 29.1875 3.625 29.1875 3 31 C-0.99994569 25.09981765 -0.33967444 19.03918228 -0.1875 12.125 C-0.17396484 10.9596875 -0.16042969 9.794375 -0.14648438 8.59375 C-0.11125821 5.72868882 -0.06199715 2.86458623 0 0 Z " fill="#E4C74D" transform="translate(4,126)"/>
<path d="M0 0 C0.9075 0.185625 1.815 0.37125 2.75 0.5625 C5.74790974 0.96606477 7.19162994 0.80239145 10 0 C10.66 0.33 11.32 0.66 12 1 C12 1.66 12 2.32 12 3 C3.57142857 5.42857143 3.57142857 5.42857143 -1 4 C-0.67 2.68 -0.34 1.36 0 0 Z " fill="#CDB656" transform="translate(94,135)"/>
<path d="M0 0 C0.66 0 1.32 0 2 0 C1.48594831 4.96916636 0.76615118 9.29026351 -1 14 C-1.66 14 -2.32 14 -3 14 C-2.34 11.03 -1.68 8.06 -1 5 C-1.66 5 -2.32 5 -3 5 C-3.33 3.68 -3.66 2.36 -4 1 C-2.02 1.99 -2.02 1.99 0 3 C0 2.01 0 1.02 0 0 Z " fill="#CFB756" transform="translate(66,102)"/>
<path d="M0 0 C0.66 0.33 1.32 0.66 2 1 C0.75323147 2.27400377 -0.4975648 3.54406654 -1.75 4.8125 C-2.44609375 5.52019531 -3.1421875 6.22789062 -3.859375 6.95703125 C-9.14340344 12 -9.14340344 12 -12 12 C-10.52739378 8.35469608 -8.57140363 6.63148808 -5.4375 4.3125 C-4.63183594 3.71050781 -3.82617188 3.10851562 -2.99609375 2.48828125 C-2.33738281 1.99714844 -1.67867187 1.50601563 -1 1 C-0.67 0.67 -0.34 0.34 0 0 Z " fill="#DAC671" transform="translate(137,127)"/>
<path d="M0 0 C2.08304538 -0.05418326 4.16649768 -0.09287551 6.25 -0.125 C7.99023438 -0.15980469 7.99023438 -0.15980469 9.765625 -0.1953125 C12.82786046 -0.0103949 14.44202751 0.39176977 17 2 C16.34 3.32 15.68 4.64 15 6 C14.38125 5.360625 13.7625 4.72125 13.125 4.0625 C8.86667102 1.25200287 5.00598862 1.19440733 0 1 C0 0.67 0 0.34 0 0 Z " fill="#D2BF6C" transform="translate(117,95)"/>
<path d="M0 0 C3 2 3 2 3.51171875 4.3828125 C3.56972656 5.28773437 3.62773438 6.19265625 3.6875 7.125 C3.75324219 8.03507812 3.81898437 8.94515625 3.88671875 9.8828125 C3.92410156 10.58148438 3.96148437 11.28015625 4 12 C3.34 11.01 2.68 10.02 2 9 C1.01 9 0.02 9 -1 9 C-1.125 2.25 -1.125 2.25 0 0 Z " fill="#413824" transform="translate(89,41)"/>
<path d="M0 0 C1.12894876 0.93274109 2.25300876 1.87140122 3.375 2.8125 C4.00148438 3.33457031 4.62796875 3.85664062 5.2734375 4.39453125 C7 6 7 6 9 9 C5.85669777 8.6507442 4.20508548 8.16074267 1.6875 6.1875 C0 4 0 4 0 0 Z " fill="#DECA6E" transform="translate(29,48)"/>
<path d="M0 0 C4.04161955 1.34484714 6.38678154 3.0505162 9.3125 6.125 C10.00988281 6.84945312 10.70726562 7.57390625 11.42578125 8.3203125 C11.94527344 8.87460937 12.46476563 9.42890625 13 10 C12.34 10.66 11.68 11.32 11 12 C10.62488281 11.55269531 10.24976563 11.10539062 9.86328125 10.64453125 C6.7158767 6.92631278 3.4956317 3.392819 0 0 Z " fill="#DDC767" transform="translate(128,28)"/>
<path d="M0 0 C3.7726764 0.53895377 5.68212991 1.99535358 8 5 C7.82246387 8.01811422 7.16264785 8.83735215 5 11 C5 10.01 5 9.02 5 8 C3.74014763 4.99573665 2.00698565 2.55434537 0 0 Z " fill="#D9C568" transform="translate(27,14)"/>
<path d="M0 0 C4.59464275 1.18147956 6.43823954 3.45526386 9.08203125 7.1484375 C10 9 10 9 10 13 C9.34 13 8.68 13 8 13 C7.89042969 12.43410156 7.78085938 11.86820313 7.66796875 11.28515625 C7.50941406 10.55167969 7.35085937 9.81820313 7.1875 9.0625 C7.03667969 8.33160156 6.88585937 7.60070312 6.73046875 6.84765625 C6.48941406 6.23792969 6.24835938 5.62820312 6 5 C5.01 4.67 4.02 4.34 3 4 C3 3.34 3 2.68 3 2 C2.01 1.67 1.02 1.34 0 1 C0 0.67 0 0.34 0 0 Z " fill="#DFCA6A" transform="translate(153,7)"/>
<path d="M0 0 C0.33 0 0.66 0 1 0 C1.22281874 1.91503674 1.42771076 3.83216506 1.625 5.75 C1.74101563 6.81734375 1.85703125 7.8846875 1.9765625 8.984375 C2.00029475 12.03792399 1.61420985 13.46162421 0 16 C-0.66 15.67 -1.32 15.34 -2 15 C-1.34 10.05 -0.68 5.1 0 0 Z " fill="#BFAD5D" transform="translate(76,58)"/>
<path d="M0 0 C1.79133978 -0.05391993 3.58313899 -0.09275571 5.375 -0.125 C6.37273437 -0.14820312 7.37046875 -0.17140625 8.3984375 -0.1953125 C11 0 11 0 13 2 C9.72814447 3.07310858 7.57052408 2.89263102 4.25 2.0625 C3.05117187 1.77052734 3.05117187 1.77052734 1.828125 1.47265625 C1.22484375 1.31667969 0.6215625 1.16070312 0 1 C0 0.67 0 0.34 0 0 Z " fill="#372E17" transform="translate(116,96)"/>
<path d="M0 0 C0.66 0.66 1.32 1.32 2 2 C1.67 2.99 1.34 3.98 1 5 C-2 3 -5 1 -8 -1 C-4.34765818 -2.21744727 -3.37046678 -1.64202228 0 0 Z " fill="#130D03" transform="translate(157,5)"/>
<path d="M0 0 C-0.66 0.66 -1.32 1.32 -2 2 C-3.32 2 -4.64 2 -6 2 C-5.67 2.99 -5.34 3.98 -5 5 C-5.66 5 -6.32 5 -7 5 C-7 4.34 -7 3.68 -7 3 C-8.65 3 -10.3 3 -12 3 C-7.97869817 0.31913211 -4.73968522 -1.57989507 0 0 Z " fill="#CAB359" transform="translate(114,145)"/>
<path d="M0 0 C0.33 0 0.66 0 1 0 C1.08090971 1.62418745 1.13914995 3.24951745 1.1875 4.875 C1.22230469 5.77992187 1.25710937 6.68484375 1.29296875 7.6171875 C1.19628906 8.40351563 1.09960938 9.18984375 1 10 C0.01 10.66 -0.98 11.32 -2 12 C-1.85962479 10.18706911 -1.71255111 8.3746557 -1.5625 6.5625 C-1.48128906 5.55316406 -1.40007812 4.54382813 -1.31640625 3.50390625 C-1 1 -1 1 0 0 Z " fill="#D7BE56" transform="translate(74,121)"/>
<path d="M0 0 C0.66 0 1.32 0 2 0 C2 0.66 2 1.32 2 2 C3.32 2.66 4.64 3.32 6 4 C6 4.66 6 5.32 6 6 C8.31 6.66 10.62 7.32 13 8 C13 8.33 13 8.66 13 9 C9.28400809 9.20086443 8.22791555 9.1519437 5 7 C5 6.34 5 5.68 5 5 C4.360625 4.731875 3.72125 4.46375 3.0625 4.1875 C1 3 1 3 0 0 Z " fill="#D2BB53" transform="translate(43,119)"/>
<path d="M0 0 C2.4375 0.375 2.4375 0.375 5 1 C5.33 1.66 5.66 2.32 6 3 C5.01 4.485 5.01 4.485 4 6 C2.35 5.01 0.7 4.02 -1 3 C-0.67 2.01 -0.34 1.02 0 0 Z " fill="#E7CB4E" transform="translate(134,98)"/>
<path d="M0 0 C0.66 0 1.32 0 2 0 C2.0825 0.598125 2.165 1.19625 2.25 1.8125 C3.20455872 4.5966296 4.57132271 5.43311142 7 7 C5.68 7.33 4.36 7.66 3 8 C1.35 6.02 -0.3 4.04 -2 2 C-1.34 2 -0.68 2 0 2 C0 1.34 0 0.68 0 0 Z " fill="#D1BC5F" transform="translate(49,37)"/>
<path d="M0 0 C1.12894876 0.93274109 2.25300876 1.87140122 3.375 2.8125 C4.00148438 3.33457031 4.62796875 3.85664062 5.2734375 4.39453125 C7 6 7 6 9 9 C8.01 9 7.02 9 6 9 C5.67 8.01 5.34 7.02 5 6 C4.34 5.690625 3.68 5.38125 3 5.0625 C2.34 4.711875 1.68 4.36125 1 4 C0.375 1.93359375 0.375 1.93359375 0 0 Z " fill="#D4BF62" transform="translate(6,30)"/>
<path d="M0 0 C1.07765625 0.01804687 2.1553125 0.03609375 3.265625 0.0546875 C4.49539062 0.08949219 4.49539062 0.08949219 5.75 0.125 C5.75 0.455 5.75 0.785 5.75 1.125 C5.18152344 1.17398437 4.61304687 1.22296875 4.02734375 1.2734375 C-0.96081129 1.75643081 -5.47599578 2.60138163 -10.25 4.125 C-10.25 3.465 -10.25 2.805 -10.25 2.125 C-6.7733662 -0.01836161 -4.03770805 -0.08777626 0 0 Z " fill="#D4BF64" transform="translate(75.25,14.875)"/>
<path d="M0 0 C0.66 0 1.32 0 2 0 C2 3.63 2 7.26 2 11 C-1.03333922 7.96666078 -0.6646334 5.2256192 -1 1 C-0.67 0.67 -0.34 0.34 0 0 Z " fill="#EFD355" transform="translate(35,63)"/>
<path d="M0 0 C0 0.66 0 1.32 0 2 C-0.969375 2.268125 -1.93875 2.53625 -2.9375 2.8125 C-3.948125 3.204375 -4.95875 3.59625 -6 4 C-6.33 4.99 -6.66 5.98 -7 7 C-8.32 6.67 -9.64 6.34 -11 6 C-9.54550599 4.9944239 -8.08627557 3.99569565 -6.625 3 C-5.40683594 2.1646875 -5.40683594 2.1646875 -4.1640625 1.3125 C-2 0 -2 0 0 0 Z " fill="#DBC666" transform="translate(62,30)"/>
<path d="M0 0 C1.32 0.66 2.64 1.32 4 2 C0.04 3.98 0.04 3.98 -4 6 C-3 2 -3 2 0 0 Z " fill="#1F1907" transform="translate(14,3)"/>
<path d="M0 0 C3.91211733 1.15585285 6.8745041 2.35534962 10 5 C6.13304322 5 3.4911548 3.58090029 0 2 C0 1.34 0 0.68 0 0 Z " fill="#D1B852" transform="translate(53,140)"/>
<path d="M0 0 C3.465 1.98 3.465 1.98 7 4 C5.25 4.75 5.25 4.75 3 5 C0.75 3.0625 0.75 3.0625 -1 1 C-0.67 0.67 -0.34 0.34 0 0 Z " fill="#DCC66D" transform="translate(100,72)"/>
<path d="M0 0 C0.66 0 1.32 0 2 0 C1.47731534 2.76276177 0.89130413 5.3260876 0 8 C-0.66 8 -1.32 8 -2 8 C-1.125 2.25 -1.125 2.25 0 0 Z " fill="#D1C072" transform="translate(73,73)"/>
<path d="M0 0 C2.31 0 4.62 0 7 0 C7 0.99 7 1.98 7 3 C5.02 3 3.04 3 1 3 C0.67 2.01 0.34 1.02 0 0 Z " fill="#E2C449" transform="translate(114,154)"/>
<path d="M0 0 C0.33 0.66 0.66 1.32 1 2 C2.32 2 3.64 2 5 2 C4.67 2.99 4.34 3.98 4 5 C3.67 4.34 3.34 3.68 3 3 C1.68 3.99 0.36 4.98 -1 6 C-1 2 -1 2 0 0 Z " fill="#CBB559" transform="translate(146,114)"/>
<path d="M0 0 C0.66 0 1.32 0 2 0 C1.67 0.99 1.34 1.98 1 3 C0.34 2.67 -0.32 2.34 -1 2 C-0.67 1.34 -0.34 0.68 0 0 Z " fill="#E8C94F" transform="translate(159,162)"/>
<path d="" fill="#E0C772" transform="translate(0,0)"/>
</svg>
