<?xml version="1.0" standalone="no"?>
<!DOCTYPE svg PUBLIC "-//W3C//DTD SVG 20010904//EN"
 "http://www.w3.org/TR/2001/REC-SVG-20010904/DTD/svg10.dtd">
<svg version="1.0" xmlns="http://www.w3.org/2000/svg"
 width="14.000000pt" height="14.000000pt" viewBox="0 0 1024.000000 1024.000000"
 preserveAspectRatio="xMidYMid meet">

<g transform="translate(0.000000,1024.000000) scale(0.100000,-0.100000)"
fill="#000000" stroke="none">
<path d="M3635 8634 c-413 -41 -709 -120 -1040 -278 -943 -451 -1562 -1373
-1630 -2427 l-7 -105 -107 -71 c-791 -529 -1074 -1565 -660 -2423 260 -539
767 -936 1339 -1049 193 -38 279 -41 1065 -41 l765 0 -266 319 -266 320 -547
4 c-515 4 -551 5 -632 25 -261 65 -449 170 -630 351 -147 148 -237 287 -304
471 -94 260 -97 564 -10 827 68 204 157 347 314 504 156 156 298 245 504 314
81 27 102 38 100 52 -25 226 -29 368 -12 543 74 795 576 1499 1303 1828 842
380 1816 212 2480 -428 258 -250 436 -525 560 -872 l32 -87 79 55 c153 106
359 192 552 231 135 27 414 24 553 -6 281 -60 520 -191 725 -396 213 -212 351
-474 402 -760 l16 -92 93 -7 c318 -22 604 -155 826 -384 180 -186 290 -390
344 -642 26 -119 26 -381 0 -500 -56 -259 -167 -463 -355 -651 -184 -184 -371
-288 -631 -351 -80 -20 -120 -21 -631 -25 l-547 -4 -266 -320 -267 -320 833 4
c903 4 864 2 1099 62 350 89 704 307 942 579 410 470 570 1078 443 1681 -103
485 -401 921 -821 1198 -117 78 -320 177 -447 218 -99 33 -102 34 -117 74 -30
79 -131 272 -189 360 -344 528 -910 871 -1541 935 -208 21 -413 9 -626 -36
-66 -14 -131 -28 -145 -30 -22 -4 -32 5 -83 84 -136 210 -369 464 -577 631
-411 330 -874 531 -1405 612 -125 19 -506 33 -610 23z"/>
<path d="M4480 4480 l0 -1280 -480 0 -480 0 796 -955 c438 -525 799 -955 804
-955 5 0 366 430 804 955 l796 955 -480 0 -480 0 0 1280 0 1280 -640 0 -640 0
0 -1280z"/>
</g>
</svg>
