<?xml version="1.0" standalone="no"?>
<!DOCTYPE svg PUBLIC "-//W3C//DTD SVG 20010904//EN"
 "http://www.w3.org/TR/2001/REC-SVG-20010904/DTD/svg10.dtd">
<svg version="1.0" xmlns="http://www.w3.org/2000/svg"
 width="25.000000pt" height="25.000000pt" viewBox="0 0 900.000000 520.000000"
 preserveAspectRatio="xMidYMid meet">

<g transform="translate(0.000000,520.000000) scale(0.100000,-0.100000)"
fill="#ffffff" stroke="none">
<path d="M2182 4469 c-102 -20 -186 -91 -223 -189 -18 -49 -19 -104 -19 -1640
0 -1536 1 -1591 19 -1640 29 -77 73 -125 149 -162 l67 -33 2325 0 2325 0 57
27 c73 34 132 95 158 164 20 54 20 68 20 1644 0 1536 -1 1591 -19 1640 -29 77
-73 125 -149 162 l-67 33 -2300 2 c-1265 0 -2319 -3 -2343 -8z m3273 -1349
l-955 -955 -949 949 c-523 523 -948 952 -946 955 2 3 859 6 1904 6 l1901 0
-955 -955z m-1673 -821 c-4 -4 -155 -102 -337 -219 -181 -117 -375 -241 -430
-277 -197 -127 -392 -253 -500 -322 -60 -39 -125 -80 -142 -92 l-33 -21 0
1193 0 1194 725 -725 c398 -398 721 -727 717 -731z m2874 -927 c-3 -2 -17 5
-33 16 -30 22 -459 300 -556 361 -32 20 -117 75 -190 122 -73 47 -253 163
-400 259 l-269 173 724 724 723 723 3 -1187 c1 -652 0 -1188 -2 -1191z m-2286
377 c65 -34 195 -34 260 0 27 14 123 101 237 214 115 114 197 188 205 185 11
-4 481 -307 783 -503 172 -112 605 -391 633 -408 18 -11 31 -21 29 -24 -6 -5
-4028 -5 -4034 0 -2 2 103 73 234 158 131 84 288 185 348 224 61 39 211 136
334 216 123 79 294 189 380 245 l156 101 195 -192 c115 -113 214 -202 240
-216z"/>
</g>
</svg>
