<?xml version="1.0" standalone="no"?>
<!DOCTYPE svg PUBLIC "-//W3C//DTD SVG 20010904//EN"
 "http://www.w3.org/TR/2001/REC-SVG-20010904/DTD/svg10.dtd">
<svg version="1.0" xmlns="http://www.w3.org/2000/svg"
 width="20" height="20" viewBox="0 0 981.000000 982.000000"
 preserveAspectRatio="xMidYMid meet">

<g transform="translate(0.000000,982.000000) scale(0.100000,-0.100000)"
fill="#000000" stroke="none">
<path d="M4452 9469 l3 -344 85 -7 c505 -43 962 -148 1405 -323 151 -60 465
-212 610 -294 1331 -765 2229 -2138 2389 -3656 9 -82 17 -168 19 -190 l2 -40
353 -3 352 -2 0 63 c0 106 -20 323 -46 507 -238 1667 -1383 3231 -2974 4063
-640 334 -1381 540 -2033 564 l-167 6 2 -344z"/>
<path d="M1735 9785 c-17 -9 -382 -367 -812 -798 -847 -849 -818 -816 -880
-992 -28 -79 -28 -84 -27 -295 4 -909 459 -2085 1247 -3220 622 -897 1499
-1842 2427 -2616 1186 -989 2426 -1629 3505 -1808 220 -37 335 -47 527 -47
202 0 248 9 388 77 l95 46 793 792 c631 630 795 798 804 828 15 51 2 104 -35
143 -18 18 -285 182 -597 366 -311 183 -702 413 -870 512 -168 99 -406 240
-531 313 -126 75 -246 138 -273 145 -26 6 -73 9 -105 6 -115 -10 -127 -19
-516 -406 l-360 -358 -95 -46 c-164 -78 -254 -86 -441 -38 -472 119 -1095 512
-1738 1095 -935 847 -1607 1731 -1825 2401 -60 185 -70 308 -35 421 50 162 83
204 439 559 202 201 277 283 296 320 30 62 41 165 25 228 -12 50 -1201 2298
-1235 2335 -46 51 -113 66 -171 37z"/>
<path d="M4455 8188 c-3 -7 -4 -168 -3 -358 l3 -345 70 -7 c920 -96 1773 -617
2289 -1398 274 -414 434 -840 504 -1340 l18 -125 352 -3 c331 -2 352 -1 352
15 0 60 -36 313 -65 458 -125 622 -383 1175 -781 1675 -127 158 -415 450 -564
572 -523 424 -1134 706 -1770 817 -102 17 -161 25 -353 46 -33 4 -49 2 -52 -7z"/>
<path d="M4457 6553 c-4 -3 -7 -136 -7 -294 l0 -287 118 -37 c474 -149 867
-485 1094 -936 29 -57 73 -167 99 -244 l47 -140 296 -3 296 -2 0 26 c0 15 -11
82 -25 150 -176 868 -881 1576 -1737 1742 -151 30 -174 33 -181 25z"/>
</g>
</svg>
